<?xml version="1.0" standalone="no"?>
<!DOCTYPE svg PUBLIC "-//W3C//DTD SVG 20010904//EN"
 "http://www.w3.org/TR/2001/REC-SVG-20010904/DTD/svg10.dtd">
<svg version="1.0" xmlns="http://www.w3.org/2000/svg"
 width="5055.000000pt" height="5049.000000pt" viewBox="0 0 5055.000000 5049.000000"
 preserveAspectRatio="xMidYMid meet">

<g transform="translate(0.000000,5049.000000) scale(0.100000,-0.100000)"
fill="#000000" stroke="none">
<path d="M24920 50087 c-185 -182 -706 -699 -1158 -1147 -453 -448 -955 -945
-1116 -1105 -926 -918 -1603 -1587 -2218 -2194 -381 -377 -738 -730 -793 -785
-56 -56 -602 -598 -1215 -1206 -613 -608 -1239 -1229 -1390 -1380 -151 -152
-700 -696 -1220 -1210 -519 -514 -1044 -1034 -1165 -1155 -122 -121 -541 -535
-931 -920 -390 -385 -819 -810 -954 -945 -135 -135 -396 -393 -581 -575 -184
-181 -735 -726 -1224 -1210 -489 -484 -1044 -1033 -1234 -1220 -189 -187 -470
-465 -625 -618 -723 -716 -947 -937 -1579 -1562 -373 -369 -799 -789 -947
-935 -148 -146 -520 -512 -827 -815 -306 -302 -731 -721 -943 -930 -212 -208
-439 -433 -506 -500 -66 -66 -430 -426 -809 -800 -379 -374 -809 -799 -955
-945 -146 -146 -636 -632 -1088 -1080 -453 -448 -956 -946 -1118 -1107 -162
-160 -294 -299 -294 -307 0 -9 -7 -16 -15 -16 -12 0 -15 -17 -15 -95 0 -62 4
-95 11 -95 6 0 609 -600 1340 -1332 731 -733 3137 -3143 5347 -5354 2209
-2212 4960 -4967 6112 -6123 1152 -1155 2263 -2268 2468 -2473 205 -205 469
-469 585 -586 576 -579 2574 -2588 5214 -5240 530 -532 968 -973 975 -981 7
-7 241 -241 520 -520 279 -278 954 -954 1499 -1501 546 -547 1004 -1003 1018
-1012 14 -10 41 -18 59 -18 80 0 21 -56 1411 1330 223 223 912 907 1529 1520
618 613 1525 1514 2015 2002 491 489 1443 1436 2116 2105 1889 1879 2192 2181
2681 2671 250 250 464 463 475 473 11 11 212 209 446 441 235 233 745 738
1133 1123 389 385 906 898 1149 1140 1157 1151 3471 3448 3748 3720 112 110
240 237 284 284 75 78 80 87 79 125 -1 24 -12 59 -28 86 -14 25 -26 52 -26 60
0 32 -74 167 -177 326 -60 91 -121 187 -138 213 -97 155 -179 275 -222 326
-19 22 -61 81 -93 130 -32 50 -87 124 -122 166 -35 42 -76 95 -93 118 -31 44
-170 214 -274 336 -33 39 -83 101 -111 139 -168 225 -295 345 -418 397 -83 34
-132 35 -193 3 -17 -8 -1445 -1429 -3173 -3157 -1728 -1728 -3171 -3169 -3207
-3202 -35 -33 -85 -82 -111 -110 -72 -78 -1457 -1448 -1508 -1491 -24 -22 -56
-52 -70 -68 -14 -17 -137 -140 -274 -275 -137 -135 -450 -447 -697 -693 -370
-369 -450 -453 -460 -486 -16 -56 2 -153 38 -201 40 -54 192 -209 328 -334 66
-61 154 -142 195 -181 42 -39 141 -125 220 -191 79 -66 172 -145 205 -176 33
-31 85 -74 115 -95 71 -50 123 -90 174 -135 23 -20 84 -63 136 -96 143 -90
311 -193 316 -193 11 0 232 -149 267 -179 28 -26 37 -41 37 -66 0 -18 -7 -38
-16 -46 -47 -39 -599 -67 -1017 -50 -160 6 -328 16 -372 21 -186 23 -429 57
-505 70 -25 5 -90 16 -145 25 -55 9 -132 24 -171 35 -39 10 -106 23 -150 30
-43 7 -95 18 -113 26 -19 8 -76 25 -125 39 -112 30 -246 69 -306 89 -258 87
-442 126 -591 126 -54 0 -71 -4 -100 -25 -19 -14 -226 -216 -460 -448 -234
-232 -799 -791 -1255 -1242 -1014 -1002 -1682 -1665 -1901 -1887 -168 -169
-199 -195 -356 -287 -64 -38 -96 -51 -118 -49 -31 3 -99 68 -903 859 -166 163
-427 417 -581 564 -154 148 -381 368 -505 489 -123 122 -285 280 -359 351 -74
72 -189 184 -256 250 -66 66 -193 190 -281 275 -89 85 -248 241 -355 345 -565
553 -802 781 -817 787 -26 10 -122 9 -204 -2 -66 -10 -270 -65 -548 -150 -58
-18 -139 -40 -180 -50 -41 -10 -106 -27 -145 -38 -66 -19 -125 -32 -320 -68
-294 -55 -363 -66 -475 -80 -69 -8 -174 -21 -235 -29 -280 -37 -860 -41 -1175
-9 -165 17 -198 26 -206 61 -16 62 30 95 174 124 53 11 108 27 123 37 92 59
167 119 297 239 133 123 221 199 320 275 33 26 56 47 182 162 30 28 95 87 144
131 128 115 351 330 571 550 191 191 238 253 228 298 -3 12 -245 261 -537 553
-292 292 -579 580 -637 640 -58 60 -137 138 -175 174 -38 36 -92 90 -119 120
-28 30 -77 80 -110 110 -33 30 -123 120 -201 200 -77 80 -165 168 -195 196
-30 29 -115 114 -190 190 -75 77 -165 166 -200 199 -35 34 -97 94 -137 135
-239 244 -389 395 -405 409 -22 20 -299 297 -592 591 -122 124 -246 248 -274
275 -28 28 -150 151 -271 275 -121 124 -230 234 -242 245 -12 11 -236 235
-497 498 -262 264 -503 504 -535 535 -33 32 -157 156 -277 277 -384 388 -1442
1452 -1712 1721 -144 143 -275 274 -290 290 -16 16 -200 203 -410 415 -210
213 -455 460 -544 550 -88 90 -190 192 -225 226 -34 34 -238 240 -453 457
-465 473 -468 475 -597 426 -66 -25 -158 -105 -309 -269 -218 -237 -282 -314
-385 -461 -37 -52 -94 -127 -126 -167 -32 -40 -78 -103 -101 -140 -23 -38 -74
-113 -113 -168 -105 -148 -149 -212 -204 -295 -84 -127 -76 -120 -125 -120
-58 0 -78 28 -83 116 -6 96 0 111 62 138 76 34 117 86 275 356 12 19 37 62 57
95 20 33 42 80 49 103 8 24 20 51 28 60 9 10 34 52 57 95 22 43 55 98 73 122
18 24 50 72 71 107 22 35 63 92 91 128 28 36 73 97 99 137 26 40 66 94 90 120
23 26 64 80 91 118 27 39 70 95 95 125 26 30 72 89 102 130 31 41 66 86 80
100 13 14 55 63 93 110 78 95 279 333 310 365 11 12 61 66 110 120 50 55 124
136 166 180 92 98 174 187 220 239 51 59 265 268 469 460 52 49 138 130 190
181 52 50 138 128 190 173 198 170 220 193 220 235 0 30 4 37 20 37 18 0 20 7
20 69 0 82 -6 101 -31 101 -17 0 -19 8 -19 85 l0 85 -60 0 -60 0 0 135 0 135
-31 0 c-28 0 -30 2 -27 33 2 27 8 33 31 35 27 3 27 4 27 83 l0 79 -31 0 -32 0
6 115 5 115 -34 0 -34 0 0 55 c0 54 0 55 30 55 27 0 30 3 30 30 0 25 -4 30
-25 30 l-25 0 0 165 0 165 -31 0 -31 0 4 151 c2 128 1 147 -10 130 -21 -31
-42 -53 -107 -111 -60 -55 -81 -78 -195 -220 -36 -45 -102 -126 -147 -179 -45
-54 -111 -143 -147 -197 -73 -112 -147 -213 -190 -257 -15 -16 -41 -56 -56
-88 -15 -32 -39 -73 -54 -91 -38 -46 -66 -88 -132 -198 -32 -52 -72 -115 -89
-140 -38 -54 -86 -138 -186 -329 -10 -19 -27 -44 -37 -55 -11 -12 -52 -84 -92
-161 -115 -221 -156 -299 -168 -320 -6 -11 -28 -58 -48 -104 -20 -46 -45 -98
-55 -116 -37 -63 -239 -484 -239 -499 0 -4 -9 -21 -20 -37 -12 -15 -29 -52
-39 -81 -26 -73 -80 -199 -91 -213 -5 -7 -17 -32 -25 -56 -9 -24 -26 -66 -39
-94 -13 -27 -31 -72 -41 -100 -43 -126 -74 -207 -83 -218 -5 -7 -15 -30 -21
-52 -7 -22 -23 -60 -36 -85 -27 -51 -63 -145 -105 -270 -16 -47 -43 -123 -60
-170 -18 -47 -42 -115 -55 -151 -13 -37 -32 -84 -43 -105 -11 -22 -25 -63 -31
-92 -6 -29 -20 -70 -30 -90 -11 -21 -23 -56 -27 -77 -3 -22 -15 -57 -26 -78
-11 -22 -28 -69 -38 -105 -10 -37 -28 -94 -39 -127 -35 -104 -79 -258 -91
-317 -8 -42 -21 -68 -51 -102 -45 -51 -70 -57 -93 -24 -31 45 -18 483 19 628
8 31 21 103 29 161 8 58 24 138 35 179 11 41 25 109 31 150 6 41 19 104 29
140 10 36 23 92 29 125 12 66 73 294 90 337 6 15 18 66 27 113 9 47 22 100 30
118 7 18 23 80 34 137 11 58 29 146 40 195 17 80 25 177 22 257 -1 29 -111
157 -281 328 -47 47 -207 211 -355 364 -149 154 -310 321 -360 371 -49 51
-142 145 -205 211 -526 544 -1016 1047 -1240 1274 -58 58 -233 238 -390 400
-157 162 -327 337 -378 389 -51 53 -136 141 -190 196 -53 55 -246 253 -427
440 -621 639 -585 600 -585 634 0 16 14 61 32 98 30 65 124 161 2127 2165
1394 1394 2102 2109 2114 2135 15 32 17 56 13 143 -5 115 -54 388 -92 516 -13
44 -30 110 -38 145 -7 35 -31 125 -51 199 -21 74 -44 157 -51 185 -8 27 -14
59 -14 70 0 11 -9 40 -20 64 -11 24 -29 98 -40 165 -11 66 -26 153 -34 191 -8
39 -22 117 -31 175 -10 58 -21 128 -26 155 -4 28 -15 111 -23 185 -8 74 -20
160 -25 190 -25 130 -42 298 -51 485 -5 110 -14 217 -19 238 -12 50 -5 73 28
87 21 8 34 8 52 0 25 -11 37 -28 136 -193 30 -49 77 -121 106 -160 30 -40 72
-103 96 -142 23 -38 58 -92 76 -120 59 -86 72 -105 187 -280 93 -143 213 -322
303 -454 11 -17 42 -65 68 -108 75 -120 161 -239 284 -391 153 -189 238 -246
309 -209 16 9 121 109 234 222 113 114 234 235 269 269 36 33 236 232 446 441
209 209 445 444 525 521 80 78 168 166 195 195 28 30 68 70 90 90 22 20 72 69
111 110 85 88 266 264 309 299 17 14 48 48 70 75 22 27 64 72 94 100 66 60
256 251 291 291 14 16 64 62 111 103 48 41 94 86 103 101 9 16 60 68 113 117
54 48 105 97 115 108 32 38 255 260 758 755 276 272 527 522 558 555 31 33 91
94 135 135 43 41 424 417 845 835 760 754 1289 1278 1451 1437 52 51 92 100
104 128 11 25 30 59 42 76 13 17 28 49 34 72 7 23 16 44 20 47 5 3 22 38 37
78 15 39 30 77 34 82 4 6 13 28 20 50 7 22 19 51 28 65 15 24 26 51 92 235 18
50 39 99 45 110 7 11 18 38 25 60 6 22 24 67 40 100 45 96 81 193 96 257 8 33
23 71 33 85 11 13 23 38 27 56 3 18 19 57 34 87 15 30 30 72 34 93 4 21 18 59
32 84 13 25 24 52 24 60 0 18 68 220 86 255 23 44 180 483 234 653 11 33 29
78 40 100 11 21 20 48 20 58 0 11 13 58 29 106 49 147 87 281 117 406 l27 120
-17 125 c-63 463 -60 598 19 780 54 124 80 161 194 282 137 144 234 211 391
269 l95 34 180 0 c172 0 184 -1 265 -29 187 -64 336 -158 478 -305 89 -91 212
-254 212 -280 0 -4 11 -25 25 -46 24 -35 42 -73 84 -184 21 -58 41 -70 83 -52
53 21 225 70 325 91 50 11 112 29 137 39 24 11 71 25 103 30 32 6 92 22 133
35 41 13 129 38 195 55 187 49 188 49 227 73 47 29 170 141 313 283 60 61 252
247 425 415 610 591 706 684 785 764 44 45 139 137 210 206 262 252 722 697
800 775 117 117 381 374 700 680 154 148 432 418 618 600 255 249 346 332 372
339 29 8 43 4 110 -30 73 -38 152 -115 2110 -2076 1647 -1648 2042 -2039 2073
-2048 20 -7 71 -25 112 -40 109 -41 256 -83 410 -119 74 -17 184 -43 243 -57
112 -27 173 -28 204 -2 27 22 89 110 111 158 11 25 27 56 35 70 8 14 35 69 60
122 25 53 63 121 85 150 45 61 188 198 206 198 7 0 34 14 60 31 216 136 599
161 866 56 158 -63 233 -111 340 -221 130 -133 159 -183 228 -386 l35 -105 -1
-180 c-1 -121 -7 -201 -17 -245 -8 -36 -22 -105 -30 -155 -9 -49 -25 -125 -36
-167 -18 -72 -18 -80 -4 -120 9 -24 27 -73 39 -109 13 -36 29 -74 35 -85 6
-10 19 -44 30 -74 11 -30 34 -93 51 -140 65 -172 93 -247 125 -335 18 -49 45
-121 60 -160 15 -38 34 -90 43 -115 8 -25 30 -76 48 -115 19 -38 41 -95 50
-125 9 -30 24 -71 34 -90 9 -19 20 -53 24 -75 4 -22 16 -55 27 -74 11 -19 26
-57 34 -86 7 -29 25 -75 39 -103 14 -28 26 -59 26 -68 0 -10 13 -47 29 -83 42
-94 91 -227 91 -247 0 -10 11 -36 24 -58 13 -23 33 -73 45 -113 12 -40 26 -75
31 -78 5 -3 18 -34 29 -68 27 -86 81 -228 195 -512 20 -49 41 -108 47 -129 11
-42 89 -130 252 -286 43 -41 180 -178 305 -303 663 -667 2090 -2098 2130
-2137 62 -60 679 -685 951 -965 23 -24 1076 -1078 1172 -1174 13 -13 184 -181
379 -373 863 -851 1365 -1356 1398 -1408 47 -73 210 -249 297 -319 108 -89
146 -111 185 -111 43 0 148 35 173 58 17 15 127 170 234 330 48 71 85 125 140
205 13 18 56 82 96 142 40 61 88 130 106 155 18 25 64 92 101 150 38 58 89
134 114 170 25 36 111 162 191 280 80 118 166 244 191 280 25 36 57 85 72 110
15 25 53 81 84 125 32 44 66 98 77 120 35 73 89 101 130 68 21 -17 24 -30 29
-134 10 -197 6 -769 -7 -889 -26 -252 -63 -529 -81 -600 -10 -41 -24 -113 -30
-159 -6 -47 -22 -118 -36 -159 -13 -41 -24 -84 -24 -97 0 -12 -15 -84 -34
-161 -18 -76 -46 -195 -61 -264 -15 -69 -37 -159 -50 -200 -13 -41 -28 -95
-35 -120 -6 -25 -19 -65 -30 -90 -26 -62 -106 -356 -125 -463 l-16 -88 25 -42
c27 -46 124 -145 1290 -1318 435 -437 1074 -1081 1419 -1430 345 -349 816
-824 1047 -1057 455 -460 457 -462 448 -560 -7 -73 -37 -113 -303 -410 -222
-249 -922 -941 -1835 -1816 -84 -80 -256 -247 -965 -936 -818 -795 -1228
-1225 -1256 -1320 -11 -36 -9 -59 15 -181 31 -155 75 -300 130 -431 20 -48 36
-93 36 -100 0 -7 11 -33 24 -58 12 -25 28 -67 35 -94 7 -27 19 -63 28 -80 9
-17 24 -58 34 -91 10 -33 27 -87 37 -120 33 -101 126 -517 141 -627 6 -43 20
-119 31 -170 22 -101 43 -280 64 -538 13 -168 8 -282 -23 -530 -14 -114 -15
-464 -1 -490 6 -11 16 -20 23 -20 7 0 270 255 583 567 314 313 833 829 1155
1147 321 318 818 811 1104 1095 286 284 1071 1063 1745 1731 1236 1225 2012
1996 2988 2967 292 292 532 537 532 546 0 9 -1499 1514 -3331 3344 -9433 9425
-21717 21718 -21794 21811 -51 61 -47 65 -415 -301z"/>
<path d="M25015 43970 c-202 -15 -460 -92 -672 -199 -138 -70 -164 -87 -318
-204 -258 -197 -472 -462 -597 -739 -95 -210 -119 -281 -146 -436 -22 -123
-26 -178 -26 -342 -1 -135 3 -206 12 -230 7 -19 19 -75 27 -124 9 -52 24 -105
38 -130 13 -22 29 -62 35 -87 14 -58 109 -250 168 -342 99 -153 359 -443 439
-489 17 -10 55 -36 85 -59 97 -72 189 -129 258 -161 37 -17 90 -41 117 -53 28
-13 68 -26 90 -30 22 -4 74 -20 115 -35 63 -23 103 -29 255 -39 222 -15 488 3
567 37 26 12 64 24 85 28 89 15 318 117 430 190 61 41 114 74 118 74 24 0 145
101 274 230 116 116 169 176 222 258 39 59 77 114 84 122 14 16 92 166 112
215 7 17 22 59 34 95 11 36 25 70 29 75 17 21 83 334 89 421 10 142 -4 367
-27 459 -12 44 -27 107 -36 140 -64 261 -228 542 -459 789 -265 282 -515 435
-857 523 -185 47 -331 58 -545 43z"/>
<path d="M27492 42209 c-38 -15 -52 -68 -64 -251 -13 -199 3 -552 28 -600 12
-23 22 -27 71 -33 32 -3 110 -14 173 -25 63 -11 158 -25 210 -30 52 -6 129
-19 170 -30 41 -10 121 -24 177 -30 56 -6 132 -19 170 -30 37 -10 109 -24 158
-30 50 -6 110 -17 135 -25 25 -7 88 -21 140 -30 52 -9 136 -25 185 -35 103
-21 190 -36 290 -50 39 -6 107 -17 153 -25 45 -8 166 -24 270 -35 103 -11 232
-27 287 -36 69 -10 215 -17 470 -21 388 -5 508 1 670 36 50 10 131 26 180 36
124 22 311 86 430 145 119 60 256 159 309 224 75 90 114 256 83 352 -9 27 -20
73 -27 103 -19 98 -137 257 -248 333 -63 44 -189 78 -287 78 -93 0 -231 -35
-305 -78 -101 -58 -224 -191 -258 -277 -46 -120 -54 -252 -21 -360 33 -109 35
-173 7 -215 -13 -19 -43 -46 -68 -59 -40 -23 -47 -23 -99 -13 -31 6 -99 16
-151 22 -52 6 -120 17 -150 25 -30 8 -98 21 -150 30 -52 9 -122 24 -155 35
-33 10 -94 25 -135 34 -41 8 -95 23 -120 34 -25 10 -70 25 -100 32 -30 7 -80
23 -110 35 -30 13 -109 39 -175 60 -66 20 -147 47 -180 60 -33 13 -73 27 -90
31 -16 3 -41 13 -55 22 -14 9 -59 26 -100 38 -41 12 -97 31 -125 42 -27 12
-99 39 -160 61 -60 22 -150 57 -200 77 -49 20 -175 65 -280 100 -104 35 -235
80 -290 100 -108 39 -192 64 -380 113 -66 18 -140 38 -165 46 -71 21 -93 24
-118 14z"/>
<path d="M18755 42203 c-52 -7 -178 -44 -215 -63 -87 -45 -233 -201 -276 -295
-13 -27 -33 -90 -45 -138 l-23 -89 22 -95 c14 -62 32 -113 53 -144 34 -54 122
-138 184 -177 22 -14 63 -40 90 -58 60 -39 212 -107 315 -140 41 -14 161 -43
265 -66 l190 -42 414 -4 c412 -3 558 3 732 32 46 8 136 19 199 26 63 7 171 21
240 32 69 11 156 24 193 29 68 8 121 18 247 45 36 7 108 20 160 29 53 8 125
23 160 34 36 10 101 24 145 31 44 6 114 20 155 31 41 10 127 26 191 34 64 8
135 21 157 29 23 8 88 20 144 26 183 20 291 48 303 78 12 33 17 430 6 552 -11
135 -30 204 -63 240 -19 20 -28 22 -83 18 -33 -3 -75 -13 -93 -22 -18 -9 -56
-21 -85 -26 -53 -10 -217 -66 -297 -102 -25 -11 -112 -44 -195 -73 -202 -72
-277 -101 -335 -130 -44 -22 -124 -54 -370 -145 -41 -15 -99 -37 -127 -49
-136 -54 -165 -65 -273 -97 -63 -19 -158 -48 -210 -64 -52 -15 -122 -34 -155
-40 -33 -6 -87 -20 -120 -31 -33 -10 -99 -26 -145 -34 -47 -8 -128 -24 -180
-35 -108 -24 -195 -41 -325 -66 -49 -9 -125 -25 -168 -36 l-78 -20 -47 24
c-55 27 -92 83 -92 139 0 20 14 89 30 152 34 130 36 166 15 253 -37 157 -132
294 -255 369 -87 52 -262 91 -355 78z"/>
<path d="M22778 40555 c-81 -12 -175 -26 -210 -30 -35 -3 -99 -21 -143 -38
-74 -30 -82 -35 -103 -79 -23 -45 -23 -54 -23 -310 1 -339 24 -731 45 -783 9
-20 16 -62 16 -92 0 -30 6 -81 14 -112 8 -31 20 -91 27 -133 l13 -78 68 0 68
0 0 30 0 30 195 0 195 0 0 30 c0 28 3 30 35 30 32 0 35 -2 35 -30 0 -30 1 -30
55 -30 55 0 55 0 55 31 l0 30 135 -7 135 -7 0 46 c0 63 7 77 41 77 28 0 29 -1
29 -55 l0 -55 55 0 55 0 0 55 0 56 223 -1 c122 0 284 -1 360 0 l137 0 0 25 c0
18 5 25 18 25 10 0 21 3 25 6 7 7 -33 64 -45 64 -12 0 -36 19 -77 63 -20 21
-74 75 -120 120 -46 45 -92 91 -102 102 -10 11 -58 63 -108 115 -183 194 -347
389 -446 530 -14 19 -44 62 -67 96 -70 99 -216 267 -250 285 -37 20 -192 17
-340 -6z"/>
<path d="M27150 40571 c-42 -13 -103 -47 -147 -83 -51 -41 -88 -91 -149 -203
-49 -91 -77 -123 -468 -526 -94 -97 -183 -189 -197 -205 -14 -16 -91 -94 -171
-172 -118 -117 -145 -148 -140 -165 7 -30 20 -37 70 -37 38 0 42 -2 42 -25 l0
-25 530 0 c347 0 530 -3 530 -10 0 -6 27 -10 60 -10 l60 0 0 -51 0 -50 133 7
c73 4 185 3 250 -1 115 -7 117 -7 117 -31 0 -23 2 -24 85 -24 l85 0 0 -30 0
-30 85 0 85 0 0 30 c0 23 4 30 20 30 18 0 20 7 20 58 1 31 5 77 10 102 5 25
17 99 25 165 29 221 28 1031 -1 1172 -7 34 -50 50 -165 63 -99 10 -239 29
-379 50 -76 11 -353 12 -390 1z"/>
<path d="M32480 39615 c0 -13 4 -34 9 -47 5 -13 17 -68 26 -123 10 -55 28
-138 41 -185 13 -46 24 -101 24 -122 0 -27 6 -41 22 -52 19 -14 23 -29 29
-105 5 -58 16 -111 33 -153 14 -36 31 -90 37 -121 5 -31 20 -80 33 -109 13
-29 27 -73 31 -97 4 -24 15 -58 25 -75 10 -17 21 -42 25 -56 27 -102 91 -294
111 -335 14 -27 31 -72 39 -100 7 -27 25 -81 39 -120 14 -38 26 -80 26 -91 0
-12 11 -46 24 -75 13 -30 29 -87 36 -126 6 -40 21 -92 32 -115 12 -24 24 -74
29 -113 4 -38 20 -101 35 -140 24 -61 27 -85 28 -183 1 -101 -1 -115 -18 -128
-11 -8 -30 -14 -43 -14 -21 0 -23 -4 -23 -60 l0 -60 55 0 c54 0 55 0 55 -30 0
-30 1 -30 55 -30 52 0 55 -1 55 -25 0 -21 5 -25 30 -25 27 0 30 -3 30 -31 0
-30 1 -30 47 -27 41 3 50 7 70 37 30 44 30 98 -1 153 -13 24 -26 68 -29 98 -4
31 -15 67 -27 82 -11 15 -23 49 -26 75 -4 27 -17 70 -30 96 -13 27 -27 66 -30
87 -3 20 -17 50 -30 65 -13 16 -24 40 -24 54 0 14 -12 58 -26 96 -15 39 -40
106 -56 150 -57 152 -108 300 -127 365 -18 61 -44 136 -121 340 -17 47 -40
112 -50 145 -10 33 -27 80 -37 105 -11 25 -23 64 -26 87 -4 22 -20 70 -37 105
-16 34 -30 71 -30 81 0 10 -9 35 -20 56 -10 22 -29 74 -40 116 -12 43 -26 87
-31 97 -6 11 -19 43 -29 71 -10 29 -34 97 -54 152 -56 151 -73 202 -101 298
-21 71 -30 87 -46 87 -14 0 -19 -7 -19 -25z"/>
<path d="M18753 39540 c-12 -28 -6 -57 9 -42 5 5 8 22 6 38 l-4 29 -11 -25z"/>
<path d="M17831 39464 c-12 -15 -21 -41 -21 -59 0 -23 -11 -46 -34 -74 -23
-27 -36 -55 -41 -88 -4 -26 -18 -69 -31 -95 -13 -26 -24 -53 -24 -60 0 -7 -14
-40 -30 -73 -16 -33 -30 -67 -30 -76 0 -9 -13 -41 -30 -72 -16 -31 -30 -62
-30 -68 0 -6 -13 -41 -30 -79 -16 -38 -30 -82 -30 -98 0 -16 -13 -49 -30 -73
-16 -24 -30 -53 -30 -64 0 -11 -9 -35 -21 -54 -11 -18 -31 -61 -44 -95 -13
-33 -42 -108 -65 -166 -23 -58 -50 -128 -60 -157 -10 -28 -24 -62 -31 -75 -7
-13 -26 -59 -42 -103 -16 -44 -42 -116 -59 -160 -16 -44 -38 -109 -49 -145
-10 -36 -27 -81 -38 -100 -10 -19 -22 -55 -26 -80 -4 -25 -16 -61 -27 -80 -11
-19 -24 -64 -29 -99 -5 -35 -18 -84 -29 -109 -11 -25 -25 -87 -31 -136 -5 -50
-14 -113 -18 -141 -10 -55 4 -214 19 -229 6 -6 10 -29 10 -52 0 -45 40 -130
48 -104 3 8 0 16 -6 18 -7 2 -12 18 -12 36 l0 33 55 -5 55 -4 0 31 c0 28 3 31
30 31 27 0 30 3 30 30 0 30 1 30 55 30 52 0 55 1 55 25 0 21 5 25 30 25 27 0
30 3 30 30 0 30 1 30 55 30 l55 0 0 33 c0 29 -6 37 -53 65 -29 18 -62 32 -72
32 -39 1 -57 26 -62 87 -4 45 -1 67 12 94 10 19 24 65 31 103 8 38 23 88 35
112 11 25 25 75 29 112 9 68 26 128 41 148 5 6 14 49 20 95 6 46 22 111 35
145 13 33 24 77 24 97 0 20 12 62 26 94 14 32 31 92 39 134 7 42 19 89 28 105
8 16 22 65 32 109 9 44 28 116 41 160 13 44 28 110 34 148 6 37 19 91 30 120
10 28 28 89 40 135 11 46 29 107 40 135 10 29 24 78 30 110 7 33 19 75 27 95
9 21 19 67 24 103 4 37 17 84 28 106 25 48 38 103 23 103 -6 0 -20 -12 -31
-26z"/>
<path d="M18739 39430 c0 -14 -2 -34 -5 -45 -2 -11 -9 -78 -14 -150 -6 -71
-15 -159 -20 -195 -5 -36 -11 -162 -15 -280 -3 -118 -7 -235 -10 -260 -14
-145 -14 -195 -3 -232 9 -31 9 -41 -1 -47 -24 -16 -31 -90 -31 -378 l0 -293
71 0 71 0 -2 83 c-1 90 15 480 24 591 30 349 20 762 -24 1029 -11 65 -20 131
-20 145 0 15 -5 34 -10 42 -8 12 -10 10 -11 -10z"/>
<path d="M31592 39303 c-19 -51 -22 -90 -28 -323 -4 -160 -1 -366 6 -520 6
-140 15 -360 19 -489 5 -171 10 -236 19 -239 13 -4 17 -62 4 -62 -10 0 -15
-84 -7 -110 4 -11 12 -17 21 -13 10 4 14 22 14 64 l0 59 36 0 37 0 -6 -45 c-7
-50 -1 -75 18 -75 8 0 15 21 20 55 4 33 10 53 17 49 6 -4 8 13 4 47 -2 30 -7
205 -10 389 -4 184 -11 405 -17 490 -34 521 -40 583 -59 629 -10 25 -24 70
-30 99 -7 29 -18 52 -25 52 -7 0 -22 -26 -33 -57z"/>
<path d="M25825 39195 c-42 -36 -39 -42 14 -24 23 8 31 17 31 35 0 13 -1 24
-3 24 -1 0 -20 -16 -42 -35z"/>
<path d="M30668 39199 c-10 -14 -21 -41 -24 -60 -8 -41 -20 -65 -44 -89 -10
-10 -23 -35 -28 -54 -6 -20 -19 -48 -30 -63 -44 -64 -140 -270 -146 -314 -3
-25 -16 -70 -30 -100 -16 -34 -26 -72 -26 -101 0 -27 -3 -48 -7 -48 -10 0 -43
-58 -43 -75 0 -9 6 -12 15 -9 11 5 15 -1 15 -25 0 -17 -4 -31 -10 -31 -5 0
-10 -11 -10 -25 0 -25 7 -30 25 -17 10 7 21 28 50 97 9 22 25 56 36 76 10 20
19 43 19 51 0 19 28 77 48 100 8 10 25 55 37 100 47 169 57 203 85 272 15 39
31 98 35 131 4 33 19 81 32 107 14 26 23 59 21 75 l-3 28 -17 -26z"/>
<path d="M19763 39172 c6 -49 26 -80 38 -61 8 13 -14 77 -33 94 -7 7 -9 -3 -5
-33z"/>
<path d="M24350 39145 c0 -20 5 -25 26 -25 32 0 30 29 -3 41 -20 7 -23 5 -23
-16z"/>
<path d="M19820 39019 c0 -27 8 -57 22 -79 11 -19 27 -66 34 -104 8 -38 20
-79 29 -92 8 -12 20 -56 26 -96 11 -69 43 -148 60 -148 5 0 11 -15 14 -32 3
-18 8 -42 10 -53 2 -11 4 -28 4 -37 1 -10 7 -18 15 -18 15 0 40 -70 50 -142 4
-26 11 -50 17 -53 5 -4 9 -17 9 -31 0 -14 6 -24 14 -24 35 0 30 104 -5 113
-14 4 -19 14 -19 36 0 28 3 31 30 31 34 0 39 14 10 30 -11 6 -19 14 -18 18 7
28 -18 117 -39 143 -14 16 -27 48 -30 70 -4 29 -12 43 -24 46 -20 6 -39 51
-39 95 0 16 -9 46 -19 66 -10 20 -24 57 -31 81 -6 25 -22 58 -35 75 -13 17
-28 49 -34 72 -6 22 -20 49 -31 59 -20 18 -20 17 -20 -26z"/>
<path d="M33053 36823 c-13 -2 -23 -9 -23 -14 0 -7 24 -7 73 0 4 0 7 6 7 11 0
10 -16 11 -57 3z"/>
<path d="M33341 36314 c0 -11 3 -14 6 -6 3 7 2 16 -1 19 -3 4 -6 -2 -5 -13z"/>
<path d="M8487 31832 c-24 -26 -21 -89 7 -207 14 -55 32 -138 40 -184 18 -92
53 -210 128 -431 27 -80 54 -165 59 -188 6 -24 24 -69 40 -99 16 -30 29 -64
29 -76 0 -11 13 -50 30 -86 16 -36 45 -109 65 -161 52 -137 148 -360 201 -461
13 -26 24 -52 24 -59 0 -14 49 -130 95 -225 19 -38 55 -115 81 -170 80 -173
157 -329 174 -355 8 -14 31 -61 49 -105 19 -44 47 -101 64 -128 36 -58 68
-116 100 -182 65 -133 132 -263 192 -370 15 -27 34 -63 43 -80 8 -16 23 -39
33 -50 10 -11 25 -39 33 -62 8 -22 28 -60 45 -83 17 -24 31 -47 31 -52 0 -5
11 -24 23 -41 13 -18 47 -75 75 -127 27 -52 75 -135 106 -185 31 -49 66 -107
79 -128 12 -21 37 -61 55 -89 17 -27 32 -54 32 -58 0 -5 15 -28 33 -52 18 -24
50 -73 71 -108 21 -36 44 -69 52 -73 8 -4 23 -25 33 -46 11 -20 27 -44 36 -51
20 -17 92 -126 124 -189 12 -24 49 -74 83 -111 33 -37 70 -85 82 -107 23 -39
38 -59 91 -117 17 -19 41 -50 55 -70 35 -52 163 -182 167 -170 2 6 26 9 58 6
l55 -4 0 256 0 256 30 0 c30 0 30 1 30 55 0 54 0 55 -30 55 l-30 0 0 85 0 85
30 0 30 0 0 85 0 85 30 0 c27 0 30 3 30 30 0 28 -3 30 -35 30 l-35 0 0 86 0
86 33 -4 34 -4 -5 168 -5 168 32 0 31 0 0 60 0 60 60 0 60 0 0 55 c0 30 -4 55
-9 55 -6 0 -11 17 -13 37 -2 30 -9 41 -30 51 -16 7 -28 20 -28 28 0 8 -8 17
-17 21 -26 9 -126 85 -142 108 -8 11 -44 47 -80 80 -102 94 -457 443 -530 520
-36 39 -140 147 -231 240 -201 206 -375 393 -397 426 -20 28 -118 143 -213
249 -38 41 -99 114 -136 162 -38 48 -114 142 -169 211 -55 68 -113 143 -130
166 -16 24 -48 64 -70 90 -23 26 -52 65 -65 87 -13 21 -47 69 -76 105 -94 119
-319 446 -434 632 -42 67 -98 156 -126 197 -64 96 -179 286 -195 325 -14 33
-38 65 -49 65 -4 0 -14 -8 -23 -18z"/>
<path d="M41998 31799 c-25 -14 -169 -195 -203 -254 -16 -27 -60 -95 -97 -151
-37 -55 -68 -103 -68 -106 0 -7 -123 -218 -148 -255 -11 -16 -39 -62 -62 -103
-54 -94 -244 -387 -287 -443 -18 -23 -65 -85 -105 -137 -148 -195 -446 -547
-644 -763 -54 -59 -119 -131 -143 -160 -47 -57 -216 -235 -476 -504 -219 -226
-192 -200 -340 -338 -71 -66 -191 -181 -267 -255 -77 -74 -142 -137 -146 -140
-23 -17 -32 -59 -32 -150 l0 -100 30 0 30 0 0 -145 0 -145 -25 0 c-24 0 -25
-3 -25 -56 l0 -56 53 4 52 3 0 -32 c0 -17 -4 -29 -9 -25 -5 3 -6 -17 -3 -49 4
-30 7 -145 7 -256 l0 -203 30 0 30 0 0 -170 0 -170 25 0 25 0 0 -170 c0 -144
2 -170 15 -170 8 0 15 -9 15 -20 0 -33 28 -23 55 20 14 23 44 57 66 77 22 20
46 48 54 62 7 14 37 51 65 81 28 30 53 65 56 78 4 12 12 22 20 22 7 0 29 24
48 54 19 30 46 67 60 83 14 15 51 66 82 113 31 47 68 99 83 115 50 56 88 111
114 160 14 28 39 67 56 89 17 21 31 42 31 46 0 5 15 26 33 48 35 45 96 139
133 211 14 25 33 55 44 66 10 11 28 40 40 65 28 61 105 193 149 258 20 29 58
95 85 145 27 51 59 111 71 134 12 23 31 54 42 70 32 45 93 164 93 182 0 9 14
36 30 60 17 24 30 49 30 54 0 6 11 25 25 43 14 18 25 35 25 39 0 3 33 74 74
158 41 84 89 184 107 222 18 39 39 77 46 86 7 9 41 78 74 154 33 76 64 144 69
150 6 7 17 35 25 62 8 28 24 61 34 75 11 13 23 38 27 54 7 31 82 213 94 229 4
6 13 28 20 50 7 22 26 66 41 97 16 31 35 74 43 95 41 111 99 272 108 303 6 19
21 57 35 84 14 27 35 79 48 115 13 36 39 111 59 166 20 55 45 129 55 165 10
36 25 79 33 95 9 17 21 57 28 90 7 33 21 77 31 97 11 21 26 69 34 108 8 39 21
83 29 99 8 15 22 58 30 95 9 37 25 88 35 114 50 123 61 160 55 175 -7 19 -30
22 -56 6z"/>
<path d="M12660 31481 c-70 -72 -614 -606 -918 -903 -7 -7 -37 -38 -66 -68
-30 -30 -216 -215 -416 -410 -199 -195 -368 -367 -376 -382 -8 -15 -14 -45
-14 -67 0 -37 7 -48 83 -127 115 -120 394 -366 446 -394 13 -7 66 -52 117
-100 78 -73 156 -134 222 -174 7 -4 12 -2 12 7 0 8 -9 17 -20 20 -15 4 -20 14
-20 36 0 31 1 31 50 31 l50 0 0 55 c0 54 0 55 30 55 l30 0 0 110 0 110 25 0
c25 0 25 1 25 85 l0 85 50 0 c49 0 50 1 50 30 0 23 -4 30 -20 30 -18 0 -20 7
-20 85 0 78 2 85 20 85 15 0 20 7 20 25 0 14 5 25 10 25 6 0 10 27 10 60 0 57
1 60 25 60 l25 0 0 110 0 110 55 0 55 0 0 85 0 85 35 0 35 0 0 55 c0 48 2 55
20 55 29 0 34 33 28 199 l-6 146 59 -3 59 -4 0 86 0 86 61 0 61 0 -7 110 -7
110 31 0 31 0 0 85 c0 84 0 85 25 85 25 0 25 1 26 83 1 59 4 74 9 52 l8 -30 1
33 c1 25 5 32 21 32 16 0 20 7 20 31 l0 30 55 -6 55 -7 0 36 c0 29 -4 36 -20
36 -11 0 -20 6 -20 14 0 36 -33 16 -120 -73z"/>
<path d="M37740 31453 c0 -18 5 -33 10 -33 6 0 10 -11 10 -24 0 -22 5 -25 43
-28 38 -3 42 -6 45 -30 3 -24 8 -28 33 -28 26 0 29 -3 29 -30 0 -25 4 -30 24
-30 28 0 36 -32 36 -147 0 -71 1 -73 25 -73 24 0 25 -3 25 -55 0 -54 0 -55 30
-55 27 0 30 -3 30 -30 0 -27 -3 -30 -30 -30 -30 0 -30 -1 -30 -55 l0 -55 59 0
58 0 7 -92 c3 -50 6 -113 6 -140 0 -41 3 -48 20 -48 16 0 20 -7 20 -30 0 -30
1 -30 55 -30 l55 0 0 -85 0 -85 30 0 30 0 0 -86 0 -86 32 4 31 5 -7 -174 c-4
-113 -3 -173 4 -173 5 0 10 -11 10 -25 0 -23 3 -25 50 -25 49 0 50 -1 50 -30
0 -27 3 -30 29 -30 l30 0 -4 -198 -3 -198 29 4 c27 4 29 2 29 -28 l0 -33 50 7
50 7 0 -29 c0 -21 -6 -31 -20 -35 -18 -5 -20 -14 -20 -115 l0 -110 68 -5 c63
-4 70 -3 112 26 25 17 47 33 50 37 3 3 23 17 45 32 22 15 74 59 115 98 41 39
93 83 115 98 72 48 283 252 327 315 37 55 43 70 46 129 5 85 -7 105 -124 213
-49 44 -106 99 -128 121 -23 23 -79 75 -126 115 -47 40 -89 80 -94 89 -6 8
-23 26 -40 40 -17 14 -80 74 -141 134 -60 59 -121 114 -136 121 -27 15 -109
99 -109 113 0 5 -42 45 -92 90 -51 44 -138 127 -193 183 -55 56 -117 118 -139
138 -32 30 -289 282 -473 464 l-43 42 0 -32z"/>
<path d="M8700 26902 c-68 -5 -306 -50 -343 -65 -17 -8 -56 -20 -86 -27 -115
-27 -372 -164 -526 -280 -193 -145 -411 -378 -501 -537 -15 -26 -42 -70 -59
-98 -18 -27 -36 -61 -40 -75 -4 -14 -13 -34 -20 -46 -28 -44 -86 -245 -106
-369 -33 -195 -37 -464 -11 -615 12 -63 24 -140 28 -170 3 -29 14 -72 24 -95
9 -22 25 -73 35 -113 9 -40 21 -74 25 -77 5 -3 16 -29 26 -58 9 -28 38 -88 64
-132 26 -44 65 -111 88 -150 59 -102 236 -297 372 -411 95 -80 297 -206 397
-248 117 -50 281 -103 348 -114 33 -5 105 -20 160 -32 87 -19 122 -21 270 -18
170 5 216 12 465 72 154 38 344 121 500 219 58 37 123 76 145 88 68 37 151
112 320 293 87 93 109 124 165 234 36 70 74 140 85 155 10 16 22 52 26 80 5
28 18 64 29 79 11 15 23 42 26 60 4 18 18 69 32 113 26 80 26 81 26 415 l0
335 -27 80 c-15 44 -27 91 -27 105 0 14 -12 50 -26 80 -14 30 -30 77 -35 104
-5 27 -21 70 -37 95 -15 25 -41 78 -57 116 -54 123 -86 175 -180 290 -14 17
-45 56 -69 88 -25 32 -65 77 -89 100 -78 75 -247 211 -315 255 -85 55 -324
172 -352 172 -11 0 -46 11 -78 24 -31 13 -79 27 -107 31 -27 4 -97 15 -155 25
-98 18 -308 29 -410 22z"/>
<path d="M41480 26850 c-47 -4 -129 -17 -182 -29 -54 -11 -109 -21 -123 -21
-61 0 -381 -144 -526 -236 -78 -50 -259 -192 -315 -248 -18 -17 -47 -45 -65
-63 -19 -17 -52 -55 -74 -83 -22 -29 -59 -72 -82 -96 -60 -63 -84 -97 -133
-189 -24 -44 -49 -87 -57 -96 -8 -9 -19 -34 -25 -55 -5 -22 -19 -51 -29 -66
-11 -14 -23 -48 -29 -75 -5 -26 -16 -68 -25 -93 -25 -71 -66 -315 -72 -430 -4
-85 0 -134 21 -257 14 -84 26 -167 26 -185 1 -18 8 -51 16 -73 9 -22 23 -65
32 -95 10 -30 25 -66 34 -80 9 -14 22 -47 28 -74 6 -27 19 -61 29 -75 10 -14
34 -57 54 -96 89 -177 284 -414 463 -564 178 -148 227 -182 364 -254 52 -27
104 -55 115 -62 11 -6 38 -18 60 -25 22 -7 60 -24 84 -37 24 -12 52 -23 61
-23 10 0 58 -12 106 -26 232 -68 664 -72 884 -8 201 59 244 76 400 159 148 80
304 197 450 339 85 82 233 263 296 363 47 73 133 255 154 327 10 34 25 79 34
102 24 65 56 327 56 459 0 158 -40 438 -74 520 -14 33 -26 68 -26 79 0 19 -21
71 -89 221 -69 152 -240 396 -395 562 -73 78 -263 230 -384 306 -75 47 -314
167 -334 167 -5 0 -42 13 -81 29 -40 15 -99 31 -132 35 -33 4 -98 16 -145 26
-100 21 -251 29 -370 20z"/>
<path d="M39180 26189 c0 -5 5 -7 10 -4 6 3 10 8 10 11 0 2 -4 4 -10 4 -5 0
-10 -5 -10 -11z"/>
<path d="M39080 23842 c0 -14 6 -22 16 -22 14 0 15 3 3 18 -7 9 -15 19 -16 21
-2 2 -3 -5 -3 -17z"/>
<path d="M39148 23677 c2 -56 1 -121 -3 -144 -5 -38 -9 -43 -32 -43 l-26 0 5
-225 6 -225 -29 0 c-26 0 -29 -4 -29 -30 0 -25 -4 -30 -25 -30 -24 0 -25 -3
-25 -55 0 -52 1 -55 25 -55 l25 0 0 -110 0 -110 -30 0 -30 0 0 -140 0 -140
-30 0 -30 0 0 -145 0 -145 -54 0 -54 0 -4 -87 -4 -88 71 -70 c122 -120 407
-390 470 -447 190 -169 797 -798 1058 -1096 32 -37 87 -99 122 -138 35 -39 75
-88 90 -109 14 -21 55 -70 91 -109 37 -39 87 -100 112 -136 25 -36 62 -85 83
-110 80 -98 349 -513 512 -790 27 -47 57 -96 67 -110 9 -14 50 -79 91 -145 84
-138 287 -422 336 -472 38 -38 77 -51 98 -33 20 17 19 43 -4 88 -10 20 -24 64
-31 97 -6 33 -22 87 -35 120 -12 33 -26 78 -30 100 -4 21 -15 55 -25 75 -10
20 -28 70 -39 111 -26 99 -58 193 -87 254 -13 28 -27 68 -30 90 -4 22 -17 58
-30 80 -12 22 -28 63 -35 90 -6 28 -21 67 -31 89 -11 21 -30 68 -42 105 -63
185 -138 387 -155 420 -28 50 -71 157 -86 213 -8 26 -25 66 -38 90 -14 24 -28
59 -32 78 -7 32 -29 86 -90 215 -12 28 -39 88 -59 135 -38 88 -50 111 -120
245 -23 44 -50 100 -59 125 -25 67 -254 517 -366 720 -23 41 -59 109 -79 151
-21 41 -64 114 -95 162 -32 48 -70 110 -86 139 -64 119 -84 154 -97 169 -8 9
-23 32 -33 50 -55 103 -140 236 -203 318 -20 27 -48 70 -62 97 -15 27 -44 74
-67 104 -22 30 -47 66 -56 80 -9 14 -33 45 -52 69 -20 25 -47 64 -61 87 -47
80 -104 159 -170 234 -36 42 -83 101 -104 132 -20 32 -52 70 -69 85 -18 16
-45 46 -62 68 -16 22 -54 66 -85 97 l-55 58 3 -103z"/>
<path d="M11790 21339 c-19 -6 -48 -25 -65 -43 -16 -18 -61 -57 -100 -87 -38
-30 -79 -64 -90 -76 -30 -33 -285 -242 -327 -269 -28 -18 -40 -34 -49 -66 -6
-23 -17 -51 -25 -62 -34 -48 -21 -72 106 -200 66 -67 170 -173 233 -236 62
-63 140 -140 173 -170 33 -30 84 -82 115 -115 30 -33 84 -87 120 -120 35 -34
121 -119 191 -190 70 -72 162 -164 205 -206 43 -42 87 -86 98 -98 11 -11 47
-45 80 -75 33 -30 74 -72 90 -95 17 -22 35 -41 40 -41 6 0 28 -20 48 -45 21
-25 47 -49 57 -55 19 -10 20 -7 20 60 l0 70 -30 0 c-25 0 -30 4 -30 25 0 20
-5 25 -25 25 -24 0 -25 3 -25 55 0 54 0 55 -30 55 l-30 0 0 60 c0 57 -1 60
-25 60 -25 0 -25 1 -25 85 l0 85 -30 0 -30 0 0 80 0 80 -54 0 c-35 0 -56 5
-59 13 -2 6 -2 60 1 118 6 126 0 159 -28 159 -18 0 -20 7 -20 80 l0 80 -35 0
-35 0 0 85 0 85 -55 0 c-54 0 -55 0 -55 30 0 23 -5 30 -19 30 -17 0 -20 11
-25 118 -10 189 -13 202 -42 202 l-24 0 0 120 0 120 -61 0 -60 0 7 140 7 140
-24 -1 c-13 0 -40 -5 -59 -10z"/>
<path d="M38590 21083 c0 -151 -7 -183 -36 -183 -19 0 -24 -5 -24 -25 0 -23
-3 -25 -50 -25 -49 0 -50 -1 -50 -31 0 -18 -4 -28 -10 -24 -7 4 -8 -53 -3
-169 4 -131 3 -176 -5 -176 -7 0 -12 -8 -12 -19 0 -10 -9 -21 -20 -24 -18 -5
-20 -14 -20 -91 l0 -86 -30 0 c-30 0 -30 -1 -30 -55 l0 -55 -55 0 -55 0 0
-115 0 -115 -25 0 c-25 0 -25 -1 -25 -85 l0 -85 -29 0 c-29 0 -30 -2 -33 -52
-3 -49 -5 -53 -30 -56 -27 -3 -28 -6 -28 -58 0 -51 -1 -54 -25 -54 -24 0 -25
-3 -25 -60 l0 -60 -30 0 -30 0 0 -80 0 -80 -55 0 -55 0 0 -54 c0 -52 -1 -55
-29 -61 -24 -5 -30 -13 -35 -43 -3 -20 -6 -45 -6 -54 0 -16 2 -16 20 2 11 11
20 23 20 26 0 3 21 25 47 47 67 59 271 256 302 292 14 17 52 55 84 85 335 317
1020 999 1042 1037 32 54 31 66 -8 110 -18 21 -45 57 -59 79 -15 23 -46 57
-69 75 -23 19 -84 75 -136 124 -52 50 -102 94 -111 99 -23 13 -174 139 -191
159 -7 10 -19 17 -26 17 -7 0 -18 7 -25 15 -25 30 -30 13 -30 -92z"/>
<path d="M12736 19061 c-10 -16 4 -37 46 -67 22 -16 49 -37 60 -48 17 -15 22
-16 29 -5 24 38 0 76 -28 48 -19 -19 -43 -2 -43 29 0 15 -5 33 -12 40 -14 14
-44 16 -52 3z"/>
<path d="M12936 18874 c-3 -9 -2 -23 4 -32 7 -14 9 -10 10 16 0 35 -5 41 -14
16z"/>
<path d="M32115 13419 c-4 -6 -5 -13 -2 -16 7 -7 27 6 27 18 0 12 -17 12 -25
-2z"/>
<path d="M18550 13210 c0 -5 5 -10 10 -10 6 0 10 5 10 10 0 6 -4 10 -10 10 -5
0 -10 -4 -10 -10z"/>
<path d="M18657 13143 c-13 -12 -7 -33 8 -33 8 0 15 9 15 20 0 20 -11 26 -23
13z"/>
<path d="M18720 13051 c0 -19 17 -38 25 -29 7 7 -7 48 -16 48 -5 0 -9 -9 -9
-19z"/>
<path d="M18781 13025 c-2 -46 10 -65 40 -65 26 0 29 4 29 30 0 26 -3 30 -29
30 -16 0 -32 6 -34 13 -3 6 -6 3 -6 -8z"/>
<path d="M31481 12876 c-21 -25 -10 -61 19 -61 22 0 25 4 25 35 0 38 -23 52
-44 26z"/>
<path d="M18980 12775 c0 -8 34 -45 42 -45 16 0 7 30 -11 40 -21 11 -31 13
-31 5z"/>
<path d="M31420 12751 c-16 -30 -12 -36 10 -16 21 19 26 35 10 35 -5 0 -14 -9
-20 -19z"/>
<path d="M19058 12735 c-5 -22 4 -39 40 -84 46 -57 372 -392 497 -510 38 -36
85 -84 105 -106 64 -74 214 -228 280 -289 36 -34 83 -81 105 -106 22 -24 94
-99 160 -166 66 -67 166 -169 222 -226 143 -145 245 -236 275 -243 15 -4 37
-1 50 6 46 24 174 139 232 208 32 39 66 73 76 76 10 3 30 24 44 45 15 22 68
83 119 136 50 53 98 107 106 122 17 33 24 40 99 119 66 69 74 84 42 76 -16 -4
-20 0 -20 21 l0 26 -115 0 -115 0 0 60 0 60 -30 0 c-27 0 -30 3 -30 30 l0 30
-165 0 c-154 0 -165 1 -165 19 0 23 -50 31 -186 31 -56 0 -94 4 -94 10 0 6
-27 10 -60 10 -53 0 -60 2 -60 20 0 15 -7 20 -25 20 -21 0 -25 5 -25 30 0 27
-3 30 -30 30 -25 0 -30 4 -30 25 0 25 -1 25 -85 25 l-85 0 0 30 c0 30 -1 30
-55 30 l-55 0 0 49 0 48 -46 7 c-26 3 -100 6 -165 6 -112 0 -119 1 -119 20 0
16 -7 20 -30 20 -16 0 -30 5 -30 10 0 6 -13 10 -30 10 -30 0 -30 1 -30 55 l0
55 -85 0 -85 0 0 31 0 30 -82 -1 c-142 -2 -138 -3 -138 25 0 21 -5 25 -30 25
-27 0 -30 3 -30 30 0 24 -4 30 -22 30 -40 0 -68 -12 -69 -29 0 -9 -6 -4 -13
13 l-13 29 -5 -28z"/>
<path d="M31320 12718 c0 -27 -2 -28 -50 -28 -47 0 -50 -2 -50 -25 0 -21 -5
-25 -30 -25 -27 0 -30 -3 -30 -30 l0 -30 -85 0 -85 0 0 -50 c0 -49 -1 -50 -30
-50 -16 0 -30 -4 -30 -10 0 -5 -9 -10 -20 -10 -12 0 -20 -7 -21 -17 0 -11 -3
-13 -6 -5 -2 6 -18 12 -34 12 -16 0 -29 5 -29 10 0 6 -25 10 -55 10 -54 0 -55
0 -55 -30 0 -30 0 -30 -57 -30 -32 0 -95 -3 -140 -7 l-83 -6 0 -48 c0 -48 -1
-49 -30 -49 -27 0 -30 -3 -30 -31 l0 -32 -110 5 -110 6 0 -29 c0 -28 -1 -29
-55 -29 l-55 0 0 -50 c0 -49 -1 -50 -30 -50 -16 0 -30 -4 -30 -10 0 -6 -53
-10 -140 -10 l-140 0 0 -29 0 -28 -140 5 -140 5 0 -32 c0 -28 -3 -31 -30 -31
l-30 0 0 -60 0 -60 -140 0 c-108 0 -140 -3 -140 -13 0 -14 -122 -39 -146 -30
-8 3 -14 16 -14 29 0 17 -6 24 -20 24 -16 0 -20 -7 -20 -35 0 -28 5 -38 25
-47 14 -6 25 -14 25 -18 0 -4 14 -20 30 -36 17 -16 50 -56 72 -89 23 -33 48
-66 55 -73 7 -7 13 -19 13 -25 0 -7 27 -39 61 -72 33 -33 73 -78 88 -100 65
-95 289 -321 338 -341 18 -8 44 -14 59 -14 34 0 56 22 701 673 4 4 80 79 169
165 88 86 177 177 197 201 21 24 61 61 90 83 44 33 138 131 149 155 1 5 23 24
48 43 88 68 390 382 390 405 0 7 -15 15 -35 17 -33 4 -35 2 -35 -24z"/>
<path d="M28620 12131 c0 -6 4 -13 10 -16 6 -3 7 1 4 9 -7 18 -14 21 -14 7z"/>
<path d="M21590 11891 c0 -25 6 -27 13 -6 4 8 2 17 -3 20 -6 4 -10 -3 -10 -14z"/>
<path d="M22415 11791 c-3 -5 -1 -12 5 -16 12 -7 30 2 30 16 0 12 -27 12 -35
0z"/>
<path d="M28070 11691 c0 -12 5 -21 10 -21 6 0 10 6 10 14 0 8 -4 18 -10 21
-5 3 -10 -3 -10 -14z"/>
<path d="M28010 11598 l0 -28 -110 0 -110 0 0 -30 c0 -27 -3 -30 -30 -30 -23
0 -30 -4 -30 -20 0 -18 -7 -20 -85 -20 -50 0 -85 -4 -85 -10 0 -6 -78 -10
-213 -10 -297 0 -457 -9 -457 -27 0 -8 -12 -13 -35 -13 -28 0 -35 4 -35 20 0
18 -7 20 -75 20 -73 0 -75 -1 -75 -25 0 -22 -4 -25 -35 -25 -28 0 -35 4 -35
20 0 16 -7 20 -30 20 -23 0 -30 -4 -30 -20 0 -19 -7 -20 -190 -20 -221 0 -223
-1 -141 -85 27 -27 71 -74 98 -104 26 -30 61 -62 76 -71 16 -10 70 -58 120
-107 51 -49 128 -117 172 -151 44 -34 109 -88 144 -120 35 -31 78 -66 95 -76
17 -11 74 -54 126 -96 52 -41 119 -91 149 -110 30 -19 85 -58 122 -87 38 -29
123 -87 191 -129 68 -43 137 -90 153 -105 17 -15 50 -37 75 -49 25 -13 82 -47
127 -76 82 -55 171 -108 253 -151 25 -13 61 -33 80 -45 19 -11 67 -39 105 -61
39 -22 97 -56 130 -76 33 -19 114 -63 180 -97 66 -34 201 -103 300 -154 245
-125 689 -336 905 -430 36 -15 126 -55 201 -89 75 -34 142 -61 148 -61 12 0
82 -28 211 -85 104 -46 185 -77 370 -142 102 -36 208 -73 236 -83 28 -10 70
-28 93 -40 24 -12 75 -28 115 -36 39 -8 94 -23 121 -34 28 -10 100 -33 160
-50 61 -16 153 -43 205 -60 52 -16 131 -38 175 -49 44 -11 108 -28 143 -38 70
-20 95 -13 100 29 4 32 2 33 -158 113 -74 38 -154 81 -177 97 -23 15 -53 32
-67 38 -14 5 -64 33 -110 62 -47 29 -130 80 -183 112 -209 125 -595 394 -809
563 -57 45 -125 96 -151 114 -27 18 -78 60 -114 93 -36 34 -101 89 -145 123
-43 35 -108 88 -144 119 -36 31 -76 65 -90 77 -67 56 -261 229 -321 287 -613
591 -921 902 -1117 1133 -133 156 -258 285 -293 301 -10 5 -19 15 -19 21 0 7
-6 15 -14 18 -8 3 -22 21 -30 39 -16 32 -18 33 -76 33 -59 0 -60 0 -60 -27z"/>
<path d="M22155 11493 c-66 -69 -134 -139 -151 -157 -18 -17 -48 -53 -69 -81
-20 -27 -77 -90 -126 -140 -49 -49 -210 -212 -357 -360 -147 -149 -346 -345
-442 -435 -96 -91 -215 -203 -265 -250 -49 -47 -112 -104 -140 -125 -64 -51
-98 -80 -155 -130 -83 -74 -234 -200 -295 -245 -33 -24 -85 -67 -115 -95 -31
-27 -94 -78 -140 -112 -47 -34 -130 -97 -185 -138 -146 -112 -390 -284 -589
-418 -64 -43 -263 -149 -441 -235 -94 -46 -161 -84 -185 -106 -14 -12 -50 -37
-81 -54 -120 -68 -190 -162 -120 -162 17 0 45 9 63 19 18 11 68 29 111 40 44
12 91 28 105 35 15 7 51 19 81 25 29 6 65 18 80 26 24 13 117 41 281 85 36 9
87 27 114 39 56 26 122 49 371 130 99 32 195 66 214 75 18 10 52 24 75 31 22
7 88 32 146 55 58 23 134 51 169 62 36 11 74 26 85 33 12 8 44 19 71 26 28 6
64 20 82 29 17 10 118 53 225 95 106 43 213 88 238 100 74 38 197 95 205 95
11 0 291 128 405 185 58 29 116 56 130 60 14 4 37 16 52 26 25 19 49 31 258
134 52 26 106 56 120 65 14 10 48 30 75 45 28 15 73 39 100 54 42 23 139 79
324 187 85 50 208 124 228 139 80 56 212 142 233 152 22 9 127 87 225 166 17
13 48 33 70 45 22 11 60 37 85 59 25 21 72 58 105 83 33 24 92 71 130 104 39
34 75 64 80 69 6 4 35 26 65 49 30 23 96 80 145 127 108 103 158 147 208 185
20 16 37 37 37 47 0 11 6 19 13 19 24 0 147 138 147 165 0 22 -4 25 -35 25
-28 0 -35 -4 -35 -20 0 -19 -7 -20 -195 -20 l-195 0 0 25 0 25 -165 0 -165 0
0 -25 c0 -22 -4 -25 -35 -25 -31 0 -35 3 -35 25 l0 25 -220 0 c-140 0 -220 4
-220 10 0 6 -25 10 -55 10 l-55 0 0 50 0 50 -170 0 -170 0 0 25 0 25 -112 -1
-113 -1 -120 -125z"/>
<path d="M24930 10481 c-41 -5 -112 -18 -157 -29 -45 -12 -91 -22 -102 -22
-28 0 -223 -65 -291 -97 -155 -73 -221 -110 -309 -172 -122 -88 -321 -290
-384 -392 -26 -42 -47 -79 -47 -83 0 -4 -11 -22 -24 -39 -38 -51 -102 -186
-121 -257 -10 -36 -26 -81 -36 -101 -10 -20 -23 -65 -28 -100 -6 -35 -17 -86
-25 -114 -31 -105 -38 -184 -38 -416 1 -214 3 -247 26 -350 14 -63 30 -141 37
-174 6 -33 22 -90 35 -126 13 -37 24 -74 24 -82 0 -18 126 -266 183 -362 82
-138 226 -297 377 -418 142 -113 453 -271 585 -297 33 -6 80 -18 105 -25 64
-20 312 -45 444 -45 184 0 403 27 574 70 138 35 171 48 330 130 159 82 211
116 360 235 69 56 206 214 278 320 48 71 143 254 179 345 34 84 91 315 112
450 36 237 17 595 -42 810 -13 47 -27 105 -31 130 -3 25 -17 65 -29 90 -13 25
-28 66 -35 90 -6 25 -18 55 -26 67 -8 13 -33 58 -55 100 -91 172 -192 299
-361 454 -99 91 -217 179 -240 179 -5 0 -26 13 -46 29 -20 16 -55 32 -77 36
-22 4 -56 16 -75 28 -57 35 -112 54 -340 113 -101 26 -117 27 -380 30 -151 1
-309 -1 -350 -5z"/>
</g>
</svg>
