<?xml version="1.0" standalone="no"?>
<!DOCTYPE svg PUBLIC "-//W3C//DTD SVG 20010904//EN"
 "http://www.w3.org/TR/2001/REC-SVG-20010904/DTD/svg10.dtd">
<svg version="1.0" xmlns="http://www.w3.org/2000/svg"
 width="5055.000000pt" height="5049.000000pt" viewBox="0 0 5055.000000 5049.000000"
 preserveAspectRatio="xMidYMid meet">

<g transform="translate(0.000000,5049.000000) scale(0.100000,-0.100000)"
fill="#000000" stroke="none">
<path d="M24913 50058 c-191 -189 -478 -473 -638 -633 -406 -404 -1381 -1369
-2092 -2070 -329 -324 -697 -688 -819 -810 -121 -121 -364 -362 -540 -535
-175 -173 -620 -612 -988 -975 -368 -363 -851 -841 -1075 -1063 -223 -222
-770 -764 -1215 -1205 -446 -441 -918 -910 -1051 -1042 -133 -132 -554 -548
-936 -925 -381 -377 -797 -788 -924 -915 -127 -126 -545 -540 -930 -920 -385
-379 -790 -780 -901 -890 -223 -221 -607 -601 -1579 -1562 -358 -353 -880
-871 -1161 -1150 -281 -279 -829 -823 -1218 -1208 -390 -385 -817 -808 -950
-940 -133 -132 -554 -548 -936 -925 -381 -377 -797 -789 -924 -916 -127 -126
-539 -534 -916 -905 -843 -831 -1479 -1460 -2987 -2956 -1246 -1237 -1506
-1493 -1514 -1493 -4 0 -32 -30 -64 -67 -31 -37 -126 -132 -209 -212 -84 -81
-186 -181 -226 -224 l-74 -79 -6 -91 c-4 -51 -3 -99 1 -107 6 -12 4183 -4204
4359 -4375 30 -30 152 -151 270 -270 118 -118 845 -848 1615 -1620 770 -772
2165 -2172 3100 -3110 935 -938 2563 -2571 3617 -3628 1054 -1057 1924 -1929
1932 -1937 92 -96 1787 -1788 1831 -1829 33 -31 80 -76 104 -101 24 -25 253
-254 508 -510 256 -256 471 -472 479 -480 41 -44 2262 -2273 2476 -2486 306
-304 98 -95 1425 -1429 2413 -2427 3344 -3355 3366 -3356 74 -4 117 22 247
149 108 106 2461 2446 3335 3317 249 248 930 925 1515 1505 585 580 1278 1269
1541 1530 1054 1048 1515 1505 1729 1716 124 122 245 243 270 270 25 27 329
328 674 669 345 341 692 685 770 765 77 79 163 165 191 190 27 25 230 225 451
445 221 220 720 715 1109 1100 389 385 897 889 1129 1120 403 402 2320 2307
3538 3517 383 381 579 582 583 600 5 20 -1 45 -24 91 -17 35 -31 69 -31 75 0
23 -74 170 -127 252 -31 47 -84 130 -120 185 -178 276 -255 389 -283 423 -18
20 -61 82 -97 137 -36 55 -80 116 -97 136 -17 20 -56 69 -86 109 -122 162
-238 307 -296 369 -33 36 -71 82 -84 101 -61 89 -217 275 -278 330 -72 65
-189 129 -252 137 -24 4 -57 -1 -89 -12 -45 -17 -206 -174 -1705 -1669 -3519
-3510 -6332 -6315 -7048 -7028 -540 -538 -752 -755 -763 -782 -26 -62 -12
-142 36 -214 67 -100 449 -461 754 -712 83 -67 175 -146 205 -175 30 -29 93
-79 140 -112 47 -34 110 -83 142 -110 52 -45 140 -103 244 -163 274 -157 480
-294 506 -334 19 -31 18 -80 -2 -100 -31 -31 -571 -61 -935 -52 -285 8 -437
19 -615 46 -69 10 -156 21 -195 25 -38 3 -119 17 -180 30 -60 12 -139 26 -175
30 -36 4 -92 16 -126 26 -33 10 -96 24 -140 30 -43 6 -97 18 -119 26 -22 8
-65 21 -95 29 -56 14 -165 47 -280 84 -36 12 -103 32 -150 45 -47 13 -108 32
-137 44 -28 11 -87 25 -130 30 -43 6 -115 16 -159 22 -45 6 -99 8 -120 4 -47
-8 69 104 -1751 -1705 -450 -448 -1112 -1105 -1469 -1460 l-650 -645 -122 -72
c-75 -45 -133 -73 -151 -73 -24 0 -71 42 -294 262 -309 307 -895 879 -1117
1092 -85 82 -205 199 -265 260 -61 61 -214 210 -340 331 -296 285 -305 294
-341 335 -17 19 -55 57 -85 84 -51 47 -735 714 -918 896 -47 47 -221 218 -386
380 -345 338 -310 317 -495 294 -111 -13 -150 -22 -270 -59 -234 -72 -323
-100 -372 -116 -31 -10 -76 -22 -100 -25 -24 -4 -71 -18 -105 -30 -35 -13 -89
-27 -120 -30 -32 -3 -98 -17 -148 -30 -49 -13 -119 -26 -155 -30 -36 -3 -112
-16 -170 -29 -58 -13 -136 -26 -175 -30 -38 -3 -126 -15 -195 -25 -229 -35
-369 -43 -765 -43 -412 0 -674 18 -722 49 -53 34 -31 113 40 144 23 10 83 26
132 35 50 10 98 21 107 26 48 26 203 150 278 223 89 87 145 135 325 279 60 48
137 114 170 145 33 31 110 102 170 156 61 54 211 196 334 315 424 409 471 460
471 518 0 39 103 -68 -1195 1238 -3079 3097 -4813 4838 -5683 5707 -376 376
-693 692 -704 703 -490 493 -1611 1622 -1659 1672 -36 37 -137 139 -225 225
-159 157 -215 197 -275 198 -50 0 -123 -34 -188 -89 -63 -52 -238 -236 -324
-340 -21 -25 -51 -59 -66 -76 -58 -62 -134 -159 -179 -225 -26 -38 -86 -120
-133 -182 -47 -62 -104 -142 -125 -178 -22 -36 -66 -101 -98 -145 -129 -179
-219 -312 -242 -356 -28 -57 -70 -76 -122 -58 -46 16 -56 41 -59 152 -2 93 -4
99 -30 121 l-28 24 -3 158 c-4 186 11 389 38 494 11 42 22 102 26 135 3 33 19
116 34 185 46 201 71 320 86 399 7 40 22 96 33 125 10 28 22 74 26 101 4 28
18 77 30 110 12 33 28 92 34 130 7 39 23 102 37 142 13 39 24 82 24 95 0 13
14 80 31 148 22 87 33 159 36 236 l5 112 -88 92 c-212 221 -447 463 -544 560
-58 58 -190 195 -295 304 -104 110 -235 245 -291 300 -55 56 -264 269 -465
475 -200 206 -429 440 -509 520 -180 181 -629 641 -895 918 -110 114 -286 295
-391 403 -378 388 -662 677 -806 823 -172 173 -171 171 -112 290 38 77 209
249 3357 3384 482 480 884 887 893 905 23 45 14 279 -15 388 -11 42 -25 109
-31 150 -6 41 -19 100 -30 130 -11 30 -26 84 -33 120 -16 70 -53 206 -92 335
-13 44 -27 100 -31 125 -3 24 -17 71 -29 105 -13 33 -26 89 -30 125 -3 36 -17
110 -30 165 -13 55 -26 129 -30 165 -4 36 -15 108 -25 160 -11 52 -26 158 -34
235 -8 77 -22 176 -31 220 -26 132 -45 322 -45 444 0 63 -7 156 -17 207 -15
87 -15 94 1 119 15 22 23 26 59 23 39 -3 44 -7 89 -73 26 -38 62 -97 80 -130
17 -33 57 -94 88 -135 30 -41 73 -104 95 -140 37 -62 109 -172 261 -398 38
-57 105 -161 149 -231 44 -70 98 -151 120 -180 22 -30 67 -98 100 -151 99
-161 176 -272 224 -326 25 -28 78 -92 116 -142 110 -143 198 -198 267 -168 19
8 252 231 563 540 292 289 773 765 1070 1058 297 293 569 564 605 602 36 38
88 90 115 114 28 25 115 111 195 191 80 80 182 180 225 222 44 41 103 100 130
130 28 30 288 288 580 574 291 286 654 644 805 795 152 151 637 633 1079 1070
1388 1375 1549 1538 1572 1583 12 23 29 53 39 67 9 14 25 49 34 77 10 29 21
55 26 58 5 3 14 22 20 43 7 20 22 60 35 87 35 74 86 202 155 385 33 89 72 184
105 260 35 80 95 237 95 252 0 7 14 40 30 73 17 33 30 68 30 78 0 10 11 39 24
65 13 26 29 68 35 92 6 25 22 70 35 100 26 62 71 192 90 260 7 25 22 63 33 85
11 22 24 56 28 75 4 19 18 58 30 85 22 47 45 112 100 285 48 151 68 206 96
271 16 36 29 74 29 83 0 10 13 59 29 109 89 279 131 446 131 522 0 22 -6 87
-14 145 -8 58 -22 183 -32 277 -17 163 -17 179 -1 284 9 61 26 132 38 158 80
172 92 190 196 300 154 163 249 230 416 293 74 28 96 31 228 36 90 3 173 0
214 -7 92 -16 210 -65 341 -142 93 -54 128 -83 232 -189 83 -85 139 -151 172
-207 28 -45 50 -86 50 -91 0 -4 10 -22 23 -40 13 -17 41 -76 62 -131 23 -62
45 -103 55 -106 9 -3 41 6 71 20 30 14 62 25 71 25 9 0 52 11 95 24 43 14 110
30 148 37 39 6 86 19 105 29 19 10 73 25 120 35 47 9 101 24 120 32 34 14 71
24 290 78 72 18 121 36 155 59 28 19 129 112 226 207 97 96 272 266 389 379
116 113 260 252 318 310 130 128 610 598 897 879 116 112 289 282 385 376 96
94 321 312 500 485 179 172 366 354 415 405 50 50 146 145 215 210 69 65 284
274 478 464 208 204 364 349 380 353 36 10 67 1 142 -43 54 -31 270 -243 1245
-1222 1025 -1029 1633 -1639 1723 -1727 14 -14 280 -282 591 -596 553 -558
567 -572 626 -591 219 -75 337 -111 380 -118 22 -4 71 -16 108 -27 38 -10 110
-28 160 -38 51 -10 122 -26 159 -35 82 -21 104 -16 156 35 38 38 67 92 188
345 69 146 186 278 294 334 36 18 72 38 80 45 8 7 53 27 100 44 290 109 606
85 880 -66 101 -56 161 -105 252 -207 86 -97 109 -139 184 -335 29 -74 29 -77
29 -295 0 -185 -3 -230 -19 -280 -10 -33 -27 -109 -37 -170 -10 -60 -24 -129
-31 -152 -11 -38 -9 -51 17 -130 15 -48 36 -102 45 -119 10 -17 26 -58 35 -90
9 -33 21 -64 26 -70 5 -7 20 -43 33 -80 13 -38 36 -103 50 -144 14 -41 31 -84
37 -95 7 -11 22 -51 35 -90 12 -38 41 -119 64 -180 23 -60 48 -131 55 -158 7
-26 23 -64 35 -85 24 -40 71 -162 100 -258 10 -33 27 -78 37 -100 11 -21 26
-61 32 -89 7 -27 21 -63 30 -80 10 -16 24 -52 30 -80 7 -27 16 -55 21 -60 11
-13 65 -159 90 -241 10 -33 27 -78 38 -100 11 -21 25 -59 32 -84 7 -25 21 -62
31 -83 11 -21 28 -63 39 -95 47 -140 71 -205 98 -269 27 -64 43 -105 107 -278
15 -38 32 -83 38 -100 6 -16 147 -165 317 -336 168 -168 357 -360 420 -425 64
-65 140 -142 170 -170 30 -28 645 -644 1365 -1368 1428 -1436 1999 -2009 2066
-2072 24 -22 87 -85 140 -140 52 -54 129 -131 170 -170 41 -39 101 -100 134
-135 33 -36 266 -267 519 -514 773 -758 1252 -1238 1281 -1285 38 -62 220
-255 302 -323 103 -83 142 -107 178 -107 35 0 137 32 170 54 12 8 56 66 98
128 42 63 90 131 107 153 17 21 44 61 60 89 17 28 51 78 75 111 25 33 56 80
70 105 14 25 54 86 89 135 36 50 82 116 103 148 181 277 508 764 540 803 18
23 57 80 86 127 28 47 80 126 114 176 35 50 69 106 76 124 18 42 38 58 84 64
31 4 42 1 58 -17 18 -20 21 -44 29 -294 11 -315 -3 -683 -33 -931 -38 -300
-42 -330 -61 -400 -10 -38 -22 -99 -25 -135 -4 -36 -19 -101 -33 -145 -13 -44
-33 -123 -42 -175 -10 -52 -27 -133 -39 -180 -11 -47 -35 -146 -52 -220 -17
-74 -44 -176 -60 -227 -16 -51 -29 -99 -29 -107 0 -9 -11 -39 -24 -68 -13 -29
-27 -69 -31 -88 -3 -19 -19 -73 -35 -120 -35 -107 -75 -318 -67 -352 9 -36
127 -167 323 -358 93 -91 752 -752 1464 -1469 712 -716 1548 -1557 1857 -1867
529 -531 563 -568 578 -616 35 -119 28 -131 -237 -433 -219 -250 -871 -905
-1393 -1400 -99 -93 -218 -208 -265 -255 -47 -47 -107 -105 -135 -129 -58 -51
-435 -412 -569 -546 -50 -50 -219 -214 -376 -365 -615 -594 -932 -910 -1160
-1160 -58 -63 -126 -137 -151 -165 -63 -68 -79 -103 -79 -170 0 -98 96 -459
150 -564 10 -20 23 -56 30 -81 6 -25 20 -58 30 -75 10 -16 25 -57 35 -89 9
-32 22 -68 30 -80 7 -12 20 -46 29 -76 8 -30 23 -80 34 -110 23 -66 58 -202
82 -325 10 -49 25 -117 34 -150 8 -33 22 -107 31 -164 8 -57 24 -138 35 -179
11 -42 25 -128 30 -191 6 -64 15 -145 20 -181 33 -230 33 -458 -1 -617 -12
-58 -25 -519 -15 -557 3 -14 11 -26 17 -26 6 0 255 244 554 543 579 577 1872
1862 2795 2777 308 305 986 978 1507 1495 520 517 1227 1219 1571 1560 343
341 846 841 1118 1112 272 271 505 500 519 509 15 9 25 26 25 39 0 17 -2033
2056 -8020 8041 -4411 4411 -8089 8088 -8173 8172 -83 85 -1853 1856 -3932
3937 -2079 2081 -4059 4063 -4400 4404 -365 366 -627 621 -637 621 -11 0 -166
-145 -365 -342z"/>
<path d="M25015 43960 c-101 -8 -341 -60 -407 -89 -24 -10 -59 -22 -78 -26
-39 -9 -285 -131 -346 -172 -116 -78 -283 -214 -363 -296 -153 -157 -295 -352
-368 -507 -14 -30 -39 -82 -54 -114 -16 -33 -29 -66 -29 -73 0 -8 -13 -45 -29
-81 -46 -105 -86 -359 -85 -542 0 -179 39 -417 85 -522 16 -36 29 -72 29 -80
0 -20 122 -258 172 -335 110 -169 339 -419 458 -499 30 -21 73 -51 95 -69 67
-53 152 -105 223 -137 37 -16 91 -41 119 -54 29 -13 74 -29 100 -34 27 -5 70
-18 97 -30 56 -25 257 -50 406 -50 135 0 367 25 420 45 25 9 74 25 110 35 121
32 309 119 421 193 60 40 135 89 166 109 72 46 335 310 400 400 89 124 197
303 214 355 6 21 18 47 25 58 6 11 15 36 19 55 4 19 18 57 31 83 13 26 29 78
35 115 6 37 20 101 31 142 28 102 36 419 15 530 -38 192 -59 279 -82 331 -14
31 -25 63 -25 70 0 27 -125 266 -179 342 -31 43 -70 99 -87 123 -50 72 -208
237 -302 316 -48 40 -89 76 -92 79 -3 3 -50 35 -105 71 -116 75 -209 123 -280
145 -27 8 -55 19 -62 25 -6 5 -83 27 -170 48 -132 31 -181 38 -298 42 -77 3
-180 2 -230 -2z"/>
<path d="M27471 42191 c-21 -21 -26 -51 -42 -251 -14 -175 3 -550 27 -587 10
-16 27 -23 71 -28 32 -3 105 -14 163 -25 58 -11 152 -24 210 -30 58 -6 137
-19 175 -30 39 -10 116 -24 173 -30 56 -6 136 -20 177 -31 41 -10 109 -24 152
-30 43 -6 112 -19 153 -29 41 -11 118 -26 170 -34 52 -9 136 -25 185 -35 50
-11 131 -25 180 -31 50 -6 135 -20 190 -30 55 -10 172 -26 260 -35 88 -8 203
-22 255 -31 163 -26 420 -36 750 -31 235 4 331 9 380 21 36 9 110 23 165 32
191 32 443 114 573 188 87 49 203 138 255 196 58 65 88 143 94 251 5 73 2 98
-21 177 -35 119 -65 170 -149 259 -85 90 -144 128 -238 155 -198 56 -435 -7
-585 -156 -95 -96 -121 -140 -150 -263 -30 -124 -28 -172 12 -305 31 -103 26
-145 -22 -198 -42 -47 -82 -64 -131 -57 -21 3 -91 12 -156 21 -64 8 -143 22
-175 30 -31 9 -100 23 -152 31 -53 8 -116 21 -140 30 -25 9 -81 23 -125 31
-44 9 -101 25 -126 35 -25 11 -77 28 -115 38 -38 10 -91 28 -119 39 -27 11
-104 37 -170 57 -66 20 -140 45 -165 56 -48 20 -126 48 -225 81 -33 11 -76 27
-95 35 -19 9 -66 26 -105 39 -99 33 -218 77 -305 114 -90 38 -315 116 -385
134 -27 7 -72 23 -100 34 -75 31 -192 72 -260 89 -33 8 -99 28 -147 44 -47 16
-95 29 -107 29 -11 0 -55 11 -98 25 -94 30 -137 31 -162 6z"/>
<path d="M18665 42175 c-121 -31 -176 -66 -280 -177 -86 -93 -126 -164 -154
-275 -26 -101 -26 -125 0 -225 32 -127 92 -204 228 -294 214 -142 359 -197
721 -275 l155 -34 480 0 c469 1 484 1 650 27 94 15 206 30 250 33 44 4 141 17
215 30 74 13 162 27 195 30 33 4 121 20 195 35 74 15 158 31 185 35 28 3 93
17 145 30 52 13 131 29 175 35 44 6 108 20 141 30 34 10 106 24 160 30 55 6
131 19 169 30 39 11 113 24 165 31 147 17 272 45 286 64 33 45 25 605 -10 721
-25 81 -48 104 -104 104 -26 -1 -72 -10 -102 -21 -30 -11 -88 -29 -129 -40
-41 -11 -88 -27 -104 -36 -16 -8 -53 -22 -81 -30 -28 -8 -71 -25 -96 -38 -25
-12 -58 -25 -75 -29 -54 -13 -361 -129 -417 -157 -43 -22 -148 -62 -231 -89
-32 -10 -69 -25 -81 -34 -13 -8 -50 -22 -82 -32 -32 -9 -70 -23 -84 -30 -54
-30 -314 -120 -417 -145 -45 -11 -99 -27 -120 -35 -21 -9 -79 -25 -130 -35
-51 -10 -109 -26 -130 -34 -21 -9 -91 -25 -156 -36 -64 -11 -128 -24 -142 -29
-14 -5 -80 -19 -147 -30 -115 -19 -218 -40 -381 -77 -81 -18 -106 -13 -157 33
-64 58 -69 124 -20 282 81 263 -94 577 -363 651 -124 34 -205 35 -322 6z"/>
<path d="M27163 40580 c-44 -9 -115 -46 -171 -90 -29 -22 -79 -91 -201 -280
-46 -71 -825 -851 -1036 -1037 -284 -251 -378 -325 -535 -425 -109 -70 -133
-67 -285 32 -33 22 -73 47 -89 56 -74 41 -329 242 -505 397 -120 106 -467 450
-623 618 -58 64 -161 190 -229 280 -204 273 -320 409 -373 436 -69 36 -547
-17 -703 -77 -69 -26 -84 -36 -97 -65 -53 -112 -36 -890 29 -1340 8 -55 19
-156 25 -225 6 -69 21 -186 35 -260 13 -74 27 -166 30 -205 3 -38 17 -110 31
-160 13 -49 30 -124 38 -165 8 -41 23 -102 34 -135 11 -33 27 -87 35 -120 15
-61 31 -112 68 -220 11 -33 28 -91 38 -130 10 -38 25 -84 34 -102 10 -18 23
-61 31 -95 8 -35 26 -97 40 -138 55 -163 80 -296 84 -456 2 -84 0 -171 -6
-195 -6 -24 -33 -134 -62 -244 -50 -193 -51 -203 -46 -300 3 -55 15 -136 25
-180 11 -44 25 -109 31 -145 22 -124 110 -371 164 -460 33 -55 62 -108 112
-205 26 -49 58 -106 73 -125 15 -19 33 -45 41 -56 167 -243 228 -306 593 -611
60 -51 114 -124 127 -174 10 -38 -4 -96 -71 -294 -11 -33 -27 -87 -35 -120 -9
-33 -24 -75 -34 -93 -11 -18 -27 -60 -36 -95 -8 -34 -22 -72 -29 -84 -8 -11
-20 -43 -26 -70 -7 -26 -20 -64 -30 -83 -9 -20 -24 -60 -32 -90 -9 -30 -24
-80 -35 -110 -40 -111 -90 -276 -97 -320 -3 -25 -15 -76 -25 -115 -11 -38 -24
-108 -30 -155 -6 -47 -22 -142 -36 -213 -14 -70 -32 -207 -40 -305 -7 -97 -19
-229 -25 -292 -17 -175 -14 -675 5 -870 9 -91 20 -230 25 -310 6 -80 21 -203
35 -275 13 -71 27 -159 31 -195 7 -79 59 -365 86 -475 11 -44 27 -111 35 -150
8 -38 23 -99 34 -135 10 -36 26 -101 35 -145 9 -43 23 -92 31 -108 9 -15 21
-64 29 -107 8 -43 21 -92 29 -109 9 -17 23 -62 31 -101 8 -39 23 -87 34 -108
11 -21 22 -56 26 -77 4 -22 18 -67 31 -100 12 -33 42 -118 65 -190 23 -71 54
-155 69 -185 16 -30 31 -71 35 -90 4 -19 18 -55 30 -80 12 -25 26 -56 29 -70
11 -38 74 -200 96 -245 10 -22 37 -83 60 -135 23 -52 50 -113 60 -135 11 -22
28 -60 39 -85 11 -25 29 -59 38 -76 10 -17 29 -60 43 -95 14 -35 63 -138 110
-229 46 -91 121 -241 167 -335 46 -93 88 -177 93 -185 5 -8 37 -64 70 -125
120 -215 141 -251 207 -348 72 -107 93 -127 136 -127 122 0 383 287 568 625
12 22 55 94 96 159 117 186 472 884 473 930 0 6 14 38 30 71 17 33 30 65 30
71 0 7 15 45 34 85 89 196 125 286 153 389 8 30 23 71 34 92 10 20 25 63 33
95 7 32 22 76 34 99 11 23 28 70 36 105 8 35 24 84 35 109 11 25 21 54 21 65
0 11 13 65 29 120 55 189 74 260 92 345 10 47 25 105 33 128 9 24 23 87 31
140 9 54 24 129 35 167 10 39 24 108 30 155 7 47 22 130 35 185 13 55 26 129
30 165 3 36 19 153 35 260 54 366 83 1060 61 1440 -20 340 -40 582 -56 665 -8
44 -24 141 -35 215 -11 74 -29 162 -39 196 -11 33 -26 101 -35 150 -8 50 -23
107 -31 128 -9 21 -23 74 -30 117 -8 44 -23 98 -33 122 -10 23 -25 67 -32 97
-7 30 -20 71 -30 90 -9 19 -23 58 -29 85 -7 28 -21 66 -31 85 -10 19 -30 61
-45 92 -14 32 -42 80 -61 108 -64 93 -144 262 -150 315 -8 74 14 109 113 175
202 136 480 386 628 565 62 75 202 280 245 360 35 64 79 166 111 255 11 30 28
73 39 95 11 22 26 72 34 110 8 39 25 111 38 160 20 83 22 113 23 385 l0 295
-38 108 c-21 59 -49 131 -63 160 -31 68 -33 171 -4 231 19 40 78 207 104 296
8 25 23 65 34 90 11 25 23 66 27 90 4 25 18 79 31 120 12 41 28 120 34 174 6
55 19 134 30 177 11 43 25 124 31 180 5 56 19 139 29 183 11 45 25 130 30 190
6 60 15 129 20 152 17 74 38 236 45 339 4 55 14 163 22 240 33 309 26 1260
-10 1330 -21 41 -64 54 -237 71 -36 3 -123 15 -195 26 -144 22 -427 32 -492
18z"/>
<path d="M32483 39635 c-3 -10 -1 -38 5 -64 6 -25 16 -80 22 -121 6 -41 20
-110 31 -152 11 -43 26 -115 35 -160 9 -45 20 -90 25 -100 5 -9 16 -52 25 -95
8 -43 26 -105 39 -138 13 -33 26 -83 30 -110 5 -27 17 -69 28 -94 11 -26 28
-75 38 -111 9 -36 27 -92 38 -125 22 -60 105 -307 143 -420 11 -33 29 -83 40
-112 11 -29 26 -81 33 -117 8 -35 20 -77 28 -93 9 -16 20 -58 26 -93 7 -36 22
-96 36 -135 13 -38 29 -102 34 -141 6 -39 17 -89 25 -111 8 -22 20 -75 27
-116 11 -63 10 -81 -2 -113 -12 -33 -21 -40 -59 -50 -201 -55 -756 -83 -952
-49 -183 32 -278 79 -292 146 -3 13 -15 66 -26 118 -12 51 -25 162 -31 245 -5
83 -13 196 -19 251 -21 210 -30 362 -40 651 -10 298 -41 739 -61 887 -10 81
-58 240 -77 259 -9 9 -18 -3 -36 -43 -20 -44 -27 -83 -36 -204 -14 -182 -14
-584 0 -910 33 -808 32 -1244 -4 -1299 -11 -17 -35 -31 -72 -42 -30 -8 -84
-29 -120 -45 l-65 -30 -557 3 -557 3 -43 24 c-25 15 -55 45 -75 75 -42 66 -49
162 -19 263 11 37 25 99 32 137 6 38 19 85 29 105 10 20 22 56 26 81 4 25 17
70 30 100 13 30 33 84 45 120 12 36 32 94 45 130 49 132 107 297 125 356 10
33 25 75 35 93 9 18 27 63 39 99 13 37 33 90 44 117 12 28 35 100 52 160 17
61 44 151 60 200 15 50 31 113 35 140 4 28 18 76 32 109 13 32 23 72 21 90 -5
57 -20 40 -82 -94 -9 -19 -23 -46 -31 -60 -99 -175 -198 -372 -205 -412 -5
-27 -15 -59 -22 -71 -6 -12 -22 -56 -34 -97 -12 -41 -32 -100 -44 -130 -43
-104 -91 -215 -107 -245 -9 -16 -22 -41 -29 -55 -12 -22 -94 -208 -176 -395
-16 -38 -43 -97 -58 -130 -37 -81 -106 -287 -135 -405 -55 -220 -67 -300 -63
-413 7 -175 62 -338 153 -456 61 -80 225 -235 274 -261 23 -11 79 -46 124 -77
78 -53 167 -99 250 -129 20 -7 52 -20 70 -28 47 -22 275 -96 297 -96 10 0 62
-12 116 -26 112 -29 324 -52 577 -61 224 -8 544 18 712 57 66 16 137 31 157
35 20 3 58 15 83 26 25 11 69 26 98 34 155 40 481 233 625 369 113 108 237
283 268 380 7 23 24 68 38 101 32 75 32 106 1 173 -14 30 -32 81 -41 115 -8
33 -24 77 -33 96 -10 20 -21 51 -25 70 -3 18 -17 59 -30 90 -13 31 -33 83 -44
116 -21 62 -56 158 -112 305 -38 99 -88 237 -120 330 -12 36 -35 100 -51 142
-16 43 -29 83 -29 90 0 7 -11 35 -24 63 -13 27 -31 70 -39 95 -43 127 -61 179
-79 225 -11 28 -27 77 -35 110 -8 33 -21 71 -30 84 -8 13 -26 56 -39 95 -42
128 -90 264 -183 516 -43 115 -57 157 -93 264 -32 98 -51 125 -65 91z"/>
<path d="M18746 39553 c-2 -10 -12 -92 -21 -183 -9 -91 -22 -228 -30 -305 -8
-77 -17 -198 -19 -270 -3 -71 -17 -274 -30 -450 -14 -176 -30 -425 -36 -553
-6 -128 -15 -270 -21 -315 -5 -45 -15 -167 -23 -272 -13 -185 -14 -192 -45
-247 -39 -68 -109 -134 -160 -149 -24 -7 -195 -9 -501 -7 l-465 3 -81 42 c-98
51 -113 75 -90 144 9 25 22 77 30 115 8 39 24 93 34 120 11 27 23 76 27 109 4
33 16 83 26 110 11 28 26 89 34 136 8 48 23 111 34 140 10 30 21 75 25 102 4
26 18 78 30 115 13 37 26 89 30 116 4 28 17 73 28 100 11 28 28 89 38 136 28
131 69 297 95 385 13 44 29 107 35 140 7 33 21 82 32 109 11 28 26 84 34 125
9 42 24 99 33 126 10 28 22 76 26 108 3 32 17 82 31 110 24 53 32 107 15 107
-18 0 -49 -51 -56 -92 -4 -23 -20 -59 -35 -80 -16 -21 -32 -58 -35 -81 -4 -23
-18 -63 -31 -89 -13 -26 -24 -53 -24 -61 0 -7 -11 -35 -24 -63 -29 -60 -70
-157 -101 -242 -13 -35 -28 -68 -33 -75 -6 -7 -18 -39 -27 -72 -10 -33 -23
-69 -30 -80 -7 -11 -16 -31 -20 -45 -3 -14 -20 -52 -35 -85 -16 -33 -41 -89
-56 -125 -14 -36 -39 -99 -56 -140 -17 -41 -40 -102 -52 -135 -12 -34 -32 -81
-43 -107 -12 -25 -25 -59 -29 -74 -4 -16 -16 -46 -26 -68 -19 -37 -29 -65 -93
-251 -15 -44 -31 -84 -35 -90 -5 -5 -16 -39 -25 -74 -9 -36 -25 -81 -35 -100
-9 -20 -21 -56 -25 -81 -4 -25 -16 -67 -27 -95 -30 -79 -71 -302 -72 -390 0
-117 35 -254 92 -361 122 -229 438 -456 832 -598 58 -21 133 -49 167 -62 34
-13 91 -28 127 -34 35 -5 94 -19 130 -30 35 -11 120 -27 188 -35 299 -37 378
-45 453 -45 87 0 391 41 495 67 160 40 238 62 275 78 22 10 60 24 85 31 71 20
321 127 365 155 81 52 171 107 230 139 74 41 278 230 344 319 44 60 73 117
118 236 11 29 16 79 16 185 0 140 -1 148 -31 223 -18 43 -32 88 -32 99 0 11
-11 47 -24 81 -14 34 -33 87 -44 117 -26 74 -72 186 -117 290 -21 47 -48 112
-62 145 -14 33 -36 83 -49 112 -13 28 -24 55 -24 58 0 15 -57 149 -113 265
-33 69 -66 143 -73 164 -8 22 -19 45 -24 51 -6 7 -19 38 -30 70 -11 31 -29 72
-40 90 -11 18 -20 38 -20 45 0 12 -47 124 -94 225 -13 28 -27 61 -31 75 -4 14
-20 48 -36 76 -16 28 -29 58 -29 66 0 9 -11 31 -24 50 -13 20 -29 53 -36 74
-17 51 -76 159 -97 176 -14 11 -15 10 -10 -17 7 -38 32 -115 59 -180 11 -27
28 -79 38 -115 10 -36 25 -85 33 -110 32 -91 68 -217 82 -281 7 -37 24 -89 38
-115 13 -27 30 -78 36 -114 7 -36 19 -76 26 -91 8 -14 25 -69 39 -122 14 -53
38 -141 52 -194 14 -53 31 -108 39 -123 8 -15 23 -60 34 -101 11 -41 29 -103
41 -139 45 -138 79 -257 85 -295 4 -21 14 -53 22 -69 19 -37 63 -199 63 -232
0 -67 -106 -179 -195 -207 -58 -17 -481 -13 -673 7 -87 9 -244 17 -362 17
-179 1 -213 3 -242 18 -42 23 -83 96 -98 176 -17 98 -23 623 -10 955 29 752
25 920 -31 1270 -18 113 -24 213 -17 294 3 32 -17 47 -26 19z"/>
<path d="M16715 35544 c-26 -19 -513 -500 -1083 -1067 -570 -568 -1054 -1050
-1077 -1072 -22 -22 -56 -58 -76 -80 -48 -52 -1673 -1669 -1724 -1716 -22 -19
-72 -69 -112 -110 -39 -41 -399 -400 -800 -799 -400 -399 -785 -784 -855 -857
l-128 -132 0 -53 0 -54 128 -129 c70 -72 182 -177 248 -235 67 -58 163 -141
214 -185 100 -87 280 -234 320 -262 14 -10 66 -49 115 -88 256 -202 337 -237
425 -184 19 12 197 184 395 383 199 198 529 523 735 721 206 198 485 468 620
600 135 132 312 305 394 385 427 414 1759 1730 1851 1829 33 36 102 105 154
155 166 161 1432 1419 1490 1481 31 33 69 71 85 85 44 38 114 108 177 175 31
33 148 152 261 264 229 227 262 273 238 332 -9 21 -26 37 -55 49 -86 37 -150
43 -375 36 -204 -7 -222 -6 -345 18 -231 45 -412 106 -524 177 -25 16 -49 29
-53 29 -20 0 -127 76 -183 129 -74 70 -149 126 -237 174 -54 30 -77 37 -121
37 -48 0 -62 -5 -102 -36z"/>
<path d="M33605 35560 c-22 -10 -47 -19 -57 -19 -23 -1 -155 -72 -257 -139
-47 -30 -111 -72 -141 -91 -160 -104 -441 -188 -720 -216 -189 -18 -474 -63
-525 -82 -55 -20 -125 -41 -157 -48 -21 -4 -28 -11 -28 -29 0 -15 10 -30 28
-41 27 -19 4589 -4587 6070 -6079 328 -331 333 -336 382 -336 42 0 254 102
360 173 189 127 462 333 530 400 25 24 70 63 100 86 114 88 302 274 348 345
44 67 47 75 51 149 l3 79 -148 148 c-82 81 -171 166 -199 190 -145 122 -1444
1411 -2045 2029 -168 172 -384 393 -480 491 -1560 1585 -2891 2914 -2983 2981
-46 33 -75 35 -132 9z"/>
<path d="M18303 32201 c-45 -21 -69 -56 -79 -118 -7 -47 20 -317 40 -393 8
-30 22 -95 31 -145 10 -49 28 -117 40 -150 13 -33 32 -87 43 -120 23 -70 70
-194 105 -280 13 -33 39 -98 56 -145 18 -47 39 -92 46 -100 7 -8 49 -86 93
-173 45 -87 90 -170 100 -185 10 -15 38 -61 61 -102 62 -109 79 -136 146 -225
33 -44 79 -111 102 -148 24 -38 69 -98 101 -135 32 -37 80 -97 105 -133 97
-137 556 -615 772 -801 142 -123 338 -277 442 -345 48 -33 124 -84 168 -115
126 -87 302 -184 460 -254 55 -25 112 -51 127 -59 49 -28 392 -165 548 -219
36 -13 83 -32 105 -43 22 -11 87 -34 145 -52 58 -18 132 -41 165 -52 33 -11
89 -27 125 -36 36 -8 101 -27 145 -41 63 -20 101 -25 184 -26 126 -1 133 4
108 85 -9 30 -21 91 -27 136 -6 45 -20 108 -31 140 -11 32 -26 91 -34 131 -8
41 -22 88 -31 105 -9 18 -26 70 -39 117 -23 83 -50 169 -81 260 -9 25 -27 76
-40 113 -13 37 -30 80 -38 95 -24 45 -86 180 -86 187 0 8 -67 152 -86 185 -8
14 -46 88 -85 165 -39 77 -84 158 -100 180 -43 59 -99 145 -119 185 -35 67
-202 299 -359 499 -164 208 -568 623 -746 767 -187 151 -348 276 -395 307 -30
20 -84 58 -120 84 -58 42 -93 64 -220 135 -19 11 -57 36 -84 55 -27 19 -137
80 -245 136 -247 127 -232 119 -321 156 -41 18 -100 43 -130 56 -90 40 -182
75 -240 94 -30 10 -66 24 -80 31 -14 8 -56 21 -95 31 -62 15 -174 54 -300 102
-75 29 -216 68 -263 73 -34 3 -59 -1 -89 -15z"/>
<path d="M32125 32095 c-38 -7 -83 -18 -100 -25 -16 -6 -60 -18 -97 -26 -38
-7 -86 -23 -108 -34 -22 -11 -63 -25 -92 -31 -29 -7 -62 -18 -73 -25 -11 -7
-74 -33 -140 -59 -144 -55 -198 -77 -290 -121 -72 -33 -159 -72 -325 -142 -52
-22 -131 -59 -175 -83 -44 -23 -136 -71 -205 -106 -69 -36 -138 -72 -155 -81
-16 -8 -50 -30 -75 -47 -25 -18 -75 -51 -113 -73 -37 -23 -87 -57 -110 -76
-23 -19 -78 -58 -121 -86 -81 -53 -160 -115 -356 -280 -111 -94 -456 -435
-556 -551 -27 -31 -74 -85 -105 -120 -74 -85 -200 -251 -284 -374 -37 -55 -85
-122 -105 -150 -21 -27 -58 -86 -82 -130 -25 -44 -62 -109 -83 -145 -68 -116
-170 -304 -187 -345 -9 -22 -28 -69 -43 -105 -15 -36 -38 -87 -51 -114 -13
-28 -24 -60 -24 -71 0 -12 -11 -42 -24 -67 -13 -24 -31 -71 -41 -104 -9 -32
-21 -63 -25 -69 -11 -13 -86 -233 -110 -320 -10 -38 -25 -89 -34 -112 -8 -23
-18 -63 -22 -90 -4 -26 -18 -84 -31 -128 -13 -44 -26 -118 -30 -165 -5 -74 -3
-88 12 -104 13 -13 27 -16 49 -12 17 4 74 11 127 16 53 5 129 18 169 29 40 11
109 25 153 31 45 7 99 18 122 27 22 8 67 21 100 29 100 25 406 124 475 154 36
16 106 47 155 69 50 22 128 56 175 76 47 20 146 71 220 113 74 41 153 84 175
95 22 11 54 30 71 43 17 13 34 24 38 24 26 0 471 317 598 427 50 43 127 109
172 147 93 80 328 317 419 423 208 241 289 343 375 468 34 50 81 117 105 150
25 33 76 116 115 185 39 69 79 136 90 150 11 14 42 70 69 125 27 55 55 109 61
120 18 31 72 155 92 210 20 57 50 130 91 226 16 36 29 72 29 80 0 8 12 34 26
59 28 48 74 167 104 265 9 33 25 78 34 99 9 22 23 68 31 103 8 35 23 80 34
101 10 20 22 57 26 82 4 25 20 86 35 135 36 118 49 265 26 300 -15 22 -23 25
-74 24 -31 0 -88 -7 -127 -14z"/>
<path d="M8484 31825 c-11 -28 4 -165 26 -240 11 -38 27 -110 36 -159 8 -49
22 -106 30 -125 8 -20 24 -74 35 -120 11 -47 24 -90 29 -96 5 -6 16 -37 24
-69 9 -32 27 -86 41 -121 14 -35 25 -72 25 -83 0 -10 11 -40 25 -66 14 -26 30
-68 36 -94 6 -26 21 -63 32 -82 11 -19 28 -60 38 -90 39 -120 124 -332 162
-405 42 -80 85 -178 93 -210 4 -16 17 -50 30 -75 13 -25 24 -49 24 -54 0 -5
29 -69 65 -142 36 -73 65 -136 65 -139 0 -3 52 -111 115 -240 63 -128 115
-238 115 -242 0 -5 16 -36 36 -69 20 -32 87 -158 148 -279 62 -121 132 -256
156 -300 23 -44 60 -112 81 -152 21 -39 49 -89 62 -110 29 -46 92 -155 140
-243 19 -36 67 -117 106 -180 39 -63 82 -135 96 -160 29 -51 74 -123 125 -201
19 -29 46 -72 60 -95 14 -24 61 -94 106 -156 44 -62 92 -134 107 -159 14 -25
45 -70 69 -99 24 -30 63 -82 88 -116 91 -127 195 -261 264 -340 39 -45 103
-117 141 -162 94 -108 395 -406 525 -519 117 -102 315 -255 363 -279 17 -9 60
-38 96 -63 86 -62 117 -80 234 -141 108 -56 126 -78 111 -132 -7 -22 -32 -51
-79 -90 -98 -81 -365 -284 -455 -346 -181 -124 -320 -229 -385 -289 -143 -134
-350 -340 -424 -423 -42 -47 -81 -89 -88 -93 -12 -7 -105 -121 -319 -389 -49
-62 -132 -174 -182 -248 -51 -74 -114 -163 -140 -197 -26 -34 -72 -102 -102
-153 -30 -50 -66 -105 -80 -124 -14 -18 -41 -61 -60 -95 -19 -34 -58 -97 -86
-140 -28 -43 -86 -143 -129 -222 -43 -79 -88 -157 -100 -174 -34 -47 -200
-367 -355 -685 -39 -80 -77 -156 -84 -170 -28 -49 -166 -353 -166 -364 0 -5
-10 -21 -21 -38 -12 -16 -27 -48 -34 -71 -7 -23 -34 -89 -60 -147 -25 -58 -52
-121 -60 -140 -7 -19 -24 -57 -39 -84 -14 -27 -26 -57 -26 -67 0 -10 -11 -42
-24 -71 -14 -29 -31 -73 -39 -98 -20 -62 -53 -143 -88 -215 -34 -70 -62 -145
-131 -350 -27 -82 -58 -166 -68 -185 -10 -19 -21 -51 -25 -70 -4 -19 -18 -57
-31 -83 -13 -27 -30 -74 -38 -105 -8 -31 -23 -79 -34 -107 -21 -54 -45 -123
-68 -195 -8 -25 -24 -72 -35 -105 -11 -33 -29 -91 -39 -130 -10 -38 -27 -99
-38 -135 -11 -36 -25 -91 -32 -122 -7 -35 -22 -71 -41 -94 -48 -61 -34 -83 28
-44 39 23 113 122 181 240 27 47 67 114 89 150 22 36 74 132 116 213 42 82 89
167 105 190 16 23 53 78 82 122 29 44 76 109 105 145 28 36 67 90 87 120 19
31 60 85 90 120 29 36 71 90 93 120 21 30 62 82 90 115 28 33 72 89 98 125 25
36 62 82 81 103 19 20 68 77 108 125 215 260 733 824 937 1022 273 263 659
619 766 705 33 27 120 101 193 164 73 64 168 145 211 181 43 36 110 92 149
125 193 165 390 317 451 347 40 19 54 20 180 15 107 -4 149 -10 196 -27 72
-27 263 -58 362 -59 107 -1 331 27 393 49 31 11 90 26 132 34 43 8 86 20 98
26 11 6 75 29 143 51 128 42 144 50 297 144 168 103 307 221 605 514 172 170
303 285 353 311 36 18 101 14 161 -10 30 -12 76 -25 102 -30 27 -5 65 -17 86
-26 21 -10 70 -27 108 -40 101 -33 211 -74 365 -138 74 -30 142 -56 150 -56 9
0 54 -13 100 -30 47 -16 95 -30 107 -30 12 0 58 -11 103 -26 44 -14 120 -31
168 -39 48 -8 113 -23 144 -34 32 -11 90 -23 130 -26 40 -4 141 -17 223 -30
269 -43 844 -75 1150 -64 294 11 675 39 800 59 66 11 172 24 235 30 63 6 156
22 205 35 50 13 115 27 145 30 30 4 109 20 175 36 66 15 183 42 260 60 138 30
323 81 440 120 33 11 98 31 145 44 47 13 101 30 120 38 19 8 60 20 90 27 30 7
69 20 85 28 17 8 59 23 95 33 36 9 108 34 160 54 52 20 115 44 140 52 25 8 74
27 110 43 36 15 83 34 105 40 22 7 45 16 50 20 6 5 37 17 70 28 104 35 304
121 452 193 78 38 145 69 149 69 7 0 86 36 154 70 19 10 105 52 190 94 85 41
175 87 200 101 25 14 133 70 240 124 107 54 233 121 280 149 47 28 128 74 180
102 102 56 173 109 191 142 20 37 -5 88 -86 175 -41 44 -120 114 -176 154 -56
41 -119 88 -140 106 -40 32 -49 38 -179 113 -41 24 -102 60 -135 81 -122 76
-449 246 -720 374 -55 26 -116 58 -135 70 -19 12 -75 38 -125 59 -115 48 -192
81 -282 123 -40 18 -77 33 -81 33 -5 0 -58 21 -118 46 -60 25 -134 54 -164 64
-31 10 -76 27 -100 38 -51 23 -97 39 -420 142 -36 11 -85 28 -110 36 -95 33
-238 77 -310 95 -41 11 -111 30 -155 43 -44 14 -102 28 -130 32 -27 3 -84 17
-125 30 -41 12 -116 30 -165 38 -50 8 -110 22 -135 31 -24 9 -90 20 -145 26
-55 6 -149 21 -210 33 -60 13 -144 26 -185 30 -41 4 -129 15 -195 26 -110 18
-282 32 -770 61 -254 16 -834 -9 -1110 -47 -60 -8 -159 -22 -220 -30 -60 -9
-175 -28 -255 -44 -80 -16 -169 -31 -198 -35 -30 -3 -75 -14 -100 -24 -26 -10
-76 -24 -112 -30 -35 -7 -87 -21 -115 -31 -27 -11 -72 -24 -100 -30 -63 -14
-199 -68 -340 -135 -384 -182 -550 -233 -614 -189 -12 9 -65 73 -117 143 -144
192 -413 471 -514 533 -19 11 -62 44 -95 73 -78 68 -347 232 -426 260 -20 8
-48 20 -61 28 -13 9 -46 22 -74 30 -28 8 -64 22 -80 30 -16 8 -54 20 -84 26
-30 6 -95 24 -145 38 -85 26 -101 28 -300 28 -196 0 -217 -2 -315 -27 -58 -15
-138 -32 -178 -38 -40 -5 -91 -14 -115 -20 -106 -24 -185 2 -317 106 -41 33
-101 77 -134 99 -32 22 -93 71 -135 108 -42 38 -112 96 -156 130 -44 33 -138
113 -208 176 -71 64 -143 126 -160 139 -74 53 -381 334 -531 486 -60 61 -119
118 -131 126 -12 8 -123 119 -246 245 -332 341 -408 423 -471 500 -31 39 -97
115 -147 170 -50 55 -112 126 -138 159 -27 32 -95 115 -152 184 -101 121 -237
296 -324 415 -23 32 -70 94 -104 137 -35 44 -83 110 -108 147 -25 38 -75 109
-110 158 -35 50 -101 148 -147 218 -46 71 -116 179 -157 240 -110 168 -149
233 -205 337 -50 93 -79 120 -92 85z"/>
<path d="M41913 31695 c-47 -58 -100 -128 -116 -157 -16 -29 -58 -93 -92 -142
-34 -50 -80 -125 -104 -166 -23 -41 -58 -103 -79 -137 -20 -35 -59 -100 -86
-145 -69 -118 -294 -457 -326 -493 -15 -16 -62 -75 -103 -130 -129 -169 -235
-296 -542 -646 -233 -266 -847 -893 -1110 -1134 -66 -61 -158 -146 -205 -190
-178 -167 -434 -390 -636 -555 -23 -19 -71 -59 -106 -87 -150 -124 -294 -223
-363 -249 -62 -23 -84 -26 -195 -26 -72 1 -185 10 -265 22 -171 25 -494 37
-620 22 -49 -6 -130 -22 -179 -36 -48 -14 -98 -26 -110 -26 -12 0 -37 -8 -56
-19 -19 -10 -52 -24 -73 -30 -75 -25 -304 -154 -402 -226 -55 -41 -120 -89
-145 -107 -106 -75 -362 -325 -607 -590 -125 -136 -155 -158 -213 -158 -28 0
-135 52 -207 101 -23 16 -45 29 -49 29 -4 0 -21 10 -38 23 -35 27 -205 107
-227 107 -8 0 -38 11 -68 25 -29 14 -85 34 -125 45 -82 22 -182 51 -316 90
-52 16 -115 31 -140 35 -25 3 -74 15 -110 25 -36 11 -117 26 -180 35 -63 8
-140 22 -170 30 -30 9 -104 20 -163 25 -59 6 -170 19 -245 30 -329 49 -1273
49 -1632 1 -80 -11 -197 -24 -260 -30 -63 -6 -160 -20 -215 -30 -55 -11 -147
-25 -205 -31 -57 -5 -136 -19 -175 -30 -38 -11 -103 -24 -144 -30 -41 -6 -111
-21 -155 -34 -45 -14 -101 -27 -126 -31 -25 -3 -83 -17 -130 -30 -47 -12 -112
-30 -145 -38 -103 -24 -248 -68 -300 -89 -27 -11 -79 -28 -115 -38 -36 -10
-92 -27 -125 -38 -33 -11 -82 -27 -110 -35 -121 -38 -441 -156 -536 -198 -36
-16 -69 -29 -74 -29 -4 0 -33 -13 -65 -29 -31 -16 -73 -34 -91 -39 -65 -20
-304 -129 -414 -189 -61 -33 -122 -64 -135 -68 -23 -7 -228 -111 -420 -213
-41 -22 -113 -63 -160 -92 -47 -29 -132 -82 -190 -117 -187 -113 -428 -292
-524 -390 -71 -71 -80 -98 -50 -141 15 -22 211 -158 244 -170 8 -3 49 -26 90
-50 139 -84 194 -115 355 -197 89 -45 179 -93 200 -108 22 -15 44 -27 49 -27
10 0 242 -110 286 -135 32 -19 66 -35 170 -80 47 -21 171 -79 275 -130 105
-50 226 -106 270 -124 44 -18 105 -44 135 -57 86 -36 179 -73 250 -99 36 -13
101 -37 145 -53 84 -32 141 -52 215 -76 25 -8 65 -21 90 -30 25 -8 99 -32 165
-52 66 -20 161 -49 210 -65 278 -86 426 -127 550 -152 28 -5 89 -20 136 -33
48 -13 129 -30 180 -38 52 -9 119 -24 149 -35 30 -10 102 -24 160 -30 58 -6
152 -20 210 -31 58 -10 161 -24 230 -30 69 -7 162 -18 207 -26 291 -49 1244
-49 1509 0 43 9 126 20 184 26 58 6 141 20 185 30 44 11 116 25 159 31 44 6
98 20 119 31 22 11 71 26 111 34 39 8 100 26 136 39 36 13 119 40 185 60 66
20 140 45 165 56 47 20 184 70 260 96 25 8 72 25 105 38 33 13 85 31 115 39
70 19 171 53 235 79 72 29 124 32 161 8 17 -10 74 -74 126 -142 106 -137 303
-342 448 -466 141 -121 405 -293 552 -358 212 -96 292 -122 459 -149 188 -31
197 -31 452 -5 135 14 279 21 437 22 l235 2 45 -27 c25 -14 77 -51 115 -82 39
-31 101 -78 140 -106 62 -46 169 -137 350 -300 66 -60 216 -190 298 -259 29
-24 75 -64 102 -90 110 -103 300 -278 349 -321 76 -66 741 -734 816 -820 36
-40 110 -121 165 -180 103 -109 258 -287 285 -325 8 -12 45 -56 82 -97 37 -41
80 -91 95 -112 16 -20 60 -78 99 -129 84 -110 216 -305 349 -517 54 -85 108
-171 120 -190 12 -19 39 -64 60 -100 21 -36 46 -76 55 -90 10 -14 50 -79 90
-145 64 -104 178 -268 302 -431 84 -112 176 -109 119 4 -10 20 -23 65 -30 99
-7 35 -20 82 -31 105 -10 24 -24 70 -30 103 -7 33 -21 76 -31 96 -10 20 -25
66 -33 103 -9 37 -21 77 -28 89 -6 12 -19 49 -29 82 -9 33 -26 83 -37 110 -12
28 -27 70 -36 95 -29 91 -78 216 -91 236 -7 11 -22 49 -33 85 -12 35 -39 116
-62 179 -23 63 -46 131 -52 150 -6 19 -21 56 -34 82 -24 47 -57 130 -94 234
-10 28 -27 68 -38 90 -11 21 -23 54 -27 72 -6 30 -47 128 -95 227 -10 22 -35
78 -55 125 -54 126 -449 929 -532 1080 -20 36 -60 112 -90 170 -30 58 -60 112
-67 120 -17 20 -106 167 -106 175 0 4 -17 35 -37 68 -20 34 -48 81 -62 105
-14 24 -47 77 -73 118 -27 41 -59 96 -73 122 -14 26 -48 79 -76 117 -27 39
-65 99 -85 133 -19 35 -67 107 -108 160 -40 54 -104 144 -141 202 -38 57 -97
138 -130 180 -33 41 -78 100 -100 130 -46 65 -168 212 -240 290 -28 30 -76 87
-107 125 -137 171 -491 495 -668 612 -63 42 -117 79 -120 83 -3 4 -34 25 -70
47 -81 49 -367 261 -399 297 -52 56 -22 123 72 166 153 69 587 387 800 584
233 217 520 512 599 616 19 25 46 58 61 73 14 16 45 54 69 85 24 32 66 84 93
118 43 51 123 161 205 279 12 17 54 75 95 130 41 55 88 125 105 155 16 30 52
87 79 125 27 39 84 129 127 200 43 72 85 139 95 150 9 11 26 38 36 60 25 50
77 140 130 225 23 36 78 135 123 220 45 85 88 162 94 170 24 28 434 852 496
995 12 28 37 82 55 120 18 39 38 86 46 105 7 19 20 46 30 60 9 14 20 39 23 57
4 18 30 83 58 145 27 62 56 133 64 157 7 24 23 58 34 76 11 18 29 57 39 86 11
30 38 106 61 169 23 63 44 124 47 135 3 11 20 54 38 95 37 84 115 296 146 398
11 37 32 96 45 132 13 36 29 87 35 115 5 27 19 69 29 93 11 23 24 67 29 97 6
30 19 74 29 97 11 24 25 68 31 98 7 30 30 102 52 159 22 57 38 110 35 118 -14
34 -48 10 -133 -92z"/>
<path d="M8545 26878 c-60 -11 -137 -29 -170 -39 -33 -11 -83 -26 -111 -33
-55 -15 -247 -107 -361 -174 -238 -140 -563 -465 -665 -665 -12 -23 -32 -55
-43 -72 -26 -36 -74 -142 -111 -245 -14 -41 -40 -156 -56 -255 -36 -221 -42
-450 -15 -580 9 -44 21 -119 27 -167 6 -48 20 -109 31 -134 11 -26 24 -68 30
-93 5 -25 16 -59 24 -76 8 -16 22 -50 30 -75 9 -25 26 -61 39 -80 12 -19 43
-73 69 -120 63 -116 95 -160 223 -301 197 -218 493 -416 724 -485 25 -7 72
-22 105 -33 33 -11 96 -27 140 -35 44 -8 114 -22 155 -31 115 -26 390 -16 525
18 55 13 123 28 150 32 28 4 70 15 95 25 25 9 86 32 135 50 119 43 203 85 336
170 61 39 114 70 119 70 19 0 186 149 291 262 111 118 153 178 231 329 19 35
39 73 45 84 36 60 86 215 129 400 20 83 29 431 16 583 -19 208 -87 430 -208
679 -76 155 -96 186 -206 324 -141 175 -304 323 -468 427 -85 53 -305 158
-350 166 -19 3 -57 15 -85 26 -27 10 -120 31 -205 45 -200 32 -445 34 -615 3z"/>
<path d="M41505 26853 c-68 -4 -339 -51 -395 -68 -102 -31 -191 -68 -302 -125
-149 -76 -198 -108 -328 -211 -174 -138 -208 -170 -283 -259 -40 -46 -93 -107
-118 -133 -52 -55 -149 -217 -213 -357 -80 -175 -146 -479 -146 -670 0 -115
53 -447 80 -499 9 -20 23 -61 29 -91 7 -30 20 -69 30 -86 10 -17 24 -48 31
-70 7 -21 21 -50 30 -64 10 -14 32 -54 50 -89 48 -97 95 -165 196 -286 180
-216 421 -419 614 -518 52 -27 106 -56 118 -64 13 -8 49 -23 80 -34 31 -11 66
-26 79 -34 12 -8 57 -24 100 -34 43 -10 105 -26 138 -34 196 -51 615 -47 800
7 44 13 98 27 120 31 93 16 417 187 517 272 31 27 95 80 143 118 88 71 177
164 253 265 23 30 63 83 89 117 26 34 62 91 79 125 89 178 102 208 114 258 7
30 22 74 32 97 24 54 58 322 58 460 0 153 -36 433 -64 502 -13 31 -29 80 -35
108 -6 29 -20 69 -31 90 -11 21 -20 42 -20 47 0 17 -89 191 -119 231 -16 22
-56 82 -90 133 -116 177 -222 292 -406 439 -182 146 -399 272 -540 314 -33 9
-82 26 -110 37 -44 18 -93 27 -310 62 -65 11 -207 18 -270 13z"/>
<path d="M25129 23563 c-29 -25 -83 -101 -144 -204 -11 -19 -37 -61 -57 -94
-21 -33 -46 -78 -57 -101 -10 -23 -39 -74 -64 -115 -44 -73 -94 -169 -158
-304 -18 -38 -38 -76 -43 -84 -31 -39 -108 -189 -256 -496 -26 -55 -73 -152
-104 -215 -31 -64 -56 -119 -56 -124 0 -5 -13 -36 -29 -70 -36 -75 -68 -154
-92 -226 -10 -30 -26 -67 -34 -82 -9 -15 -23 -50 -31 -77 -8 -27 -28 -75 -44
-106 -17 -32 -30 -63 -30 -71 0 -8 -13 -47 -29 -87 -34 -84 -66 -179 -88 -257
-8 -30 -23 -71 -34 -92 -11 -21 -25 -66 -33 -100 -7 -35 -22 -83 -33 -108 -11
-25 -23 -67 -27 -94 -4 -28 -17 -72 -27 -99 -11 -28 -26 -81 -34 -119 -8 -37
-21 -84 -30 -104 -8 -20 -20 -66 -26 -102 -6 -37 -21 -98 -35 -137 -13 -38
-31 -113 -39 -165 -9 -52 -23 -119 -31 -149 -7 -30 -21 -106 -30 -170 -8 -64
-24 -147 -35 -186 -10 -38 -23 -119 -28 -180 -6 -60 -21 -180 -35 -265 -60
-375 -61 -1338 -1 -1690 14 -80 29 -188 35 -240 5 -52 20 -138 34 -190 13 -52
27 -117 30 -145 11 -82 76 -346 114 -460 11 -33 37 -114 58 -180 20 -66 45
-136 54 -155 10 -19 20 -53 24 -74 4 -22 21 -64 37 -94 16 -30 29 -63 29 -72
0 -9 11 -37 24 -62 13 -24 27 -55 31 -69 4 -13 27 -63 51 -111 49 -97 55 -145
25 -193 -35 -53 -307 -322 -502 -496 -80 -71 -235 -245 -263 -294 -10 -16 -48
-84 -86 -150 -97 -168 -152 -284 -190 -400 -18 -55 -44 -127 -56 -160 -25 -64
-79 -321 -90 -429 -5 -53 -1 -91 25 -208 18 -79 44 -174 58 -213 21 -58 27
-93 31 -202 4 -128 3 -134 -21 -175 -51 -87 -312 -420 -420 -535 -35 -37 -77
-88 -94 -113 -17 -25 -59 -74 -93 -110 -34 -36 -126 -139 -204 -230 -79 -91
-151 -172 -161 -180 -10 -8 -50 -51 -88 -95 -197 -225 -993 -1006 -1167 -1144
-35 -29 -83 -69 -105 -89 -71 -66 -237 -207 -320 -271 -44 -34 -114 -91 -155
-127 -41 -35 -100 -81 -130 -101 -30 -21 -89 -65 -132 -100 -43 -34 -113 -86
-155 -114 -43 -29 -89 -62 -103 -75 -14 -12 -61 -46 -105 -76 -44 -30 -131
-89 -192 -132 -69 -47 -213 -128 -370 -208 -142 -71 -269 -140 -283 -153 -14
-12 -56 -43 -95 -67 -83 -53 -135 -100 -135 -122 0 -22 41 -21 82 3 18 11 60
26 93 35 33 8 87 24 120 35 134 45 321 104 435 136 47 13 108 34 135 48 28 14
66 28 85 32 19 4 60 18 90 30 30 13 118 42 195 65 77 23 160 51 185 62 25 11
68 29 95 39 28 10 93 34 145 54 133 51 214 80 290 105 36 12 92 35 125 51 33
16 64 29 69 29 5 0 34 11 65 24 31 14 103 43 161 66 97 38 200 84 292 132 20
10 63 28 94 38 31 11 62 24 68 28 6 5 27 15 46 22 19 8 112 50 206 95 94 45
187 88 207 94 20 7 39 17 43 22 3 5 85 48 182 95 97 47 185 92 194 101 9 8 65
41 125 72 97 52 203 111 378 213 95 55 161 96 296 184 70 45 140 89 156 98 17
8 70 45 119 82 49 37 119 87 155 110 85 55 313 226 359 269 19 18 73 62 121
96 237 177 758 688 1026 1009 44 52 84 102 89 112 5 9 39 51 75 95 37 43 97
123 135 178 37 55 85 125 106 156 21 31 48 59 60 63 40 10 90 -24 118 -80 31
-63 127 -206 200 -299 30 -38 82 -106 115 -150 54 -73 163 -202 225 -266 14
-14 70 -75 125 -135 119 -130 367 -370 523 -509 188 -166 527 -431 697 -545
44 -29 100 -70 125 -90 25 -21 108 -77 185 -125 77 -48 151 -96 165 -107 26
-20 151 -98 230 -143 25 -14 74 -44 110 -66 36 -22 80 -47 99 -55 19 -9 49
-26 65 -38 17 -13 49 -32 71 -43 22 -12 81 -44 130 -72 173 -98 632 -332 860
-438 88 -41 212 -99 275 -130 141 -68 220 -104 285 -131 28 -11 93 -39 145
-62 179 -78 205 -89 250 -103 25 -8 83 -31 130 -52 47 -21 112 -48 145 -60
153 -59 276 -105 345 -127 166 -56 208 -71 265 -97 33 -16 76 -32 95 -36 37
-7 195 -53 295 -85 33 -10 89 -26 125 -35 36 -9 85 -24 110 -34 25 -11 77 -24
116 -30 39 -6 101 -22 138 -36 80 -30 121 -32 135 -6 16 29 -2 43 -164 126
-82 42 -157 83 -165 90 -8 8 -34 22 -56 32 -23 10 -72 37 -110 61 -38 24 -123
77 -189 117 -218 134 -633 426 -803 563 -36 29 -95 74 -131 99 -36 26 -95 74
-132 107 -36 34 -83 74 -105 91 -122 92 -491 422 -722 645 -390 376 -739 739
-975 1014 -140 162 -191 219 -258 291 -37 38 -89 99 -115 135 -26 36 -82 103
-124 150 -43 47 -95 110 -116 140 -21 31 -76 103 -120 160 -144 186 -166 257
-124 399 10 36 24 97 30 134 6 37 22 114 35 170 33 137 36 367 5 486 -11 43
-27 111 -35 152 -9 41 -26 94 -39 119 -13 25 -27 61 -31 80 -4 19 -20 63 -36
98 -16 35 -29 68 -29 73 0 5 -20 49 -45 97 -159 305 -286 462 -574 711 -74 64
-192 172 -262 241 -180 176 -182 192 -71 410 144 282 185 367 203 417 10 31
23 61 29 68 5 7 19 50 31 95 11 46 27 96 34 110 8 15 19 58 25 96 7 38 22 103
35 144 13 42 28 110 34 152 6 43 20 110 31 150 11 40 29 143 40 228 11 85 27
198 36 250 19 119 43 608 43 885 0 243 -24 810 -38 905 -16 106 -39 290 -46
365 -4 39 -17 124 -31 190 -13 66 -29 158 -35 205 -5 47 -19 120 -30 163 -11
43 -26 124 -34 180 -8 57 -21 123 -30 147 -9 24 -22 83 -30 130 -9 47 -24 110
-34 140 -11 30 -24 84 -31 118 -6 35 -16 76 -22 90 -6 15 -23 74 -38 132 -48
181 -77 275 -93 306 -8 16 -22 57 -31 90 -9 33 -24 83 -35 110 -10 27 -38 108
-61 179 -24 72 -52 148 -63 170 -24 49 -72 164 -96 230 -10 28 -28 68 -40 90
-11 22 -21 46 -21 54 0 8 -15 46 -34 85 -18 39 -52 109 -74 156 -68 144 -97
202 -147 290 -26 47 -59 110 -72 140 -23 51 -81 151 -175 300 -22 36 -62 99
-87 140 -26 41 -70 109 -98 150 -29 41 -63 90 -75 108 -37 55 -188 244 -227
285 -44 47 -111 87 -145 87 -13 0 -39 -12 -57 -27z"/>
<path d="M22664 22650 c-11 -4 -67 -15 -125 -24 -152 -24 -422 -99 -604 -167
-27 -10 -86 -29 -130 -43 -203 -61 -507 -198 -815 -368 -172 -95 -198 -110
-304 -185 -41 -28 -87 -58 -103 -66 -62 -33 -272 -186 -413 -301 -30 -25 -89
-72 -130 -103 -112 -86 -613 -591 -702 -708 -42 -55 -111 -141 -152 -192 -41
-51 -87 -114 -102 -140 -16 -26 -53 -81 -84 -121 -57 -76 -173 -259 -191 -301
-5 -13 -18 -35 -28 -50 -20 -28 -130 -237 -217 -411 -28 -58 -57 -125 -64
-150 -7 -25 -21 -62 -31 -82 -48 -94 -147 -374 -175 -498 -13 -58 -29 -118
-34 -135 -5 -16 -19 -115 -30 -218 -11 -104 -23 -205 -26 -225 -3 -24 0 -44 8
-55 13 -17 21 -17 103 -7 50 6 131 22 180 35 50 13 119 29 155 35 36 6 104 24
152 40 47 17 94 30 104 30 10 0 68 16 129 36 60 19 146 47 190 60 44 14 121
44 170 65 50 22 117 52 150 66 33 14 87 38 121 54 34 16 66 29 73 29 13 0 329
171 373 202 15 10 69 44 120 74 51 30 124 77 163 105 38 27 98 69 132 92 144
99 429 329 457 369 8 11 49 49 91 84 102 85 447 454 526 563 17 25 50 68 73
95 83 102 276 386 332 487 31 57 68 120 83 139 31 39 93 155 147 275 20 44 45
91 54 105 10 14 23 45 30 70 7 24 20 60 31 80 27 50 105 247 141 355 11 33 28
80 38 105 10 25 25 79 34 120 9 41 25 98 36 125 10 28 21 73 25 100 4 28 20
91 35 140 15 50 33 131 39 180 7 50 21 118 32 153 17 50 18 66 9 77 -14 16
-44 18 -76 5z"/>
<path d="M27631 22575 c-14 -18 -21 -42 -21 -69 1 -73 28 -299 49 -391 10 -49
22 -115 26 -145 4 -30 17 -80 28 -110 11 -30 31 -91 43 -135 36 -126 135 -407
153 -429 4 -6 18 -38 30 -71 13 -33 27 -65 32 -71 5 -6 31 -57 59 -115 28 -57
56 -113 63 -124 6 -11 23 -42 37 -70 36 -68 146 -251 181 -300 16 -22 46 -65
69 -95 22 -30 58 -84 80 -120 22 -36 79 -110 126 -165 47 -55 96 -116 109
-135 38 -59 343 -392 440 -480 27 -25 84 -77 125 -115 182 -172 527 -445 690
-548 41 -26 91 -61 110 -77 42 -34 390 -246 422 -256 19 -6 72 -34 193 -102
106 -59 364 -171 489 -213 32 -10 70 -26 85 -34 28 -16 134 -54 241 -87 36
-10 93 -28 127 -39 34 -11 91 -25 125 -30 35 -5 97 -21 138 -33 95 -30 238
-43 271 -25 38 20 48 41 48 99 0 169 -84 465 -211 750 -19 42 -35 84 -87 235
-12 33 -32 83 -46 110 -13 28 -35 75 -48 105 -14 30 -41 89 -60 130 -19 41
-38 86 -42 100 -4 14 -15 34 -25 45 -10 11 -51 85 -92 165 -41 80 -101 187
-134 238 -315 494 -500 728 -864 1092 -182 181 -337 323 -440 401 -47 36 -119
92 -160 124 -85 68 -225 165 -303 211 -29 16 -83 50 -122 75 -116 75 -182 113
-347 198 -86 45 -169 88 -185 96 -40 21 -189 85 -197 85 -4 0 -31 11 -59 24
-29 13 -63 27 -77 31 -14 4 -38 15 -55 25 -16 10 -50 23 -75 30 -25 6 -79 22
-120 35 -41 14 -120 38 -175 54 -55 16 -147 43 -204 61 -109 33 -308 79 -377
87 -36 4 -44 1 -63 -22z"/>
<path d="M12360 21824 c-41 -20 -86 -45 -100 -56 -14 -10 -70 -52 -125 -93
-55 -41 -122 -95 -150 -121 -27 -25 -88 -78 -135 -117 -47 -39 -112 -96 -145
-127 -33 -30 -123 -109 -199 -175 -76 -66 -162 -141 -191 -166 -29 -25 -77
-65 -108 -88 -45 -35 -60 -53 -77 -97 -11 -30 -20 -73 -20 -96 0 -46 -46 3
565 -612 165 -166 348 -351 407 -411 58 -61 137 -139 175 -175 37 -36 559
-560 1160 -1165 600 -605 1461 -1471 1912 -1925 452 -454 825 -829 831 -835
427 -432 590 -595 702 -703 6 -5 515 -519 1104 -1116 11 -10 137 -136 280
-280 144 -144 537 -538 872 -876 1713 -1725 1585 -1600 1634 -1600 39 0 74 21
148 87 108 98 415 420 535 562 39 46 115 136 170 201 318 375 378 497 300 611
-17 23 -726 741 -1577 1593 -852 853 -1977 1983 -2500 2511 -1620 1631 -5231
5238 -5275 5268 -65 45 -105 45 -193 1z"/>
<path d="M37785 21684 c-49 -33 -223 -200 -577 -553 -567 -567 -5645 -5633
-7508 -7491 -665 -663 -1214 -1218 -1219 -1233 -27 -70 -4 -144 75 -243 27
-34 68 -85 92 -115 24 -30 84 -106 134 -169 50 -63 115 -141 145 -173 29 -32
79 -91 110 -130 32 -40 91 -111 133 -158 41 -47 96 -110 122 -140 81 -93 201
-216 242 -248 50 -40 108 -56 138 -40 24 13 55 43 486 468 301 297 599 588
747 731 55 53 197 190 315 305 268 261 527 511 611 590 35 33 87 84 114 114
28 30 70 70 95 90 25 20 71 64 103 98 31 35 83 87 115 116 31 29 128 122 214
207 86 85 389 385 674 665 285 281 548 541 584 579 36 37 100 103 144 145 43
42 1270 1267 2727 2722 1790 1788 2653 2657 2663 2681 19 45 13 69 -45 153
-51 76 -262 281 -415 405 -50 41 -154 129 -229 195 -76 66 -164 140 -195 165
-32 25 -100 79 -151 120 -141 113 -163 128 -231 160 -91 43 -127 40 -213 -16z"/>
<path d="M24960 10499 c-164 -17 -446 -90 -575 -150 -33 -15 -71 -32 -85 -38
-195 -85 -466 -318 -601 -516 -74 -108 -182 -311 -202 -380 -8 -27 -22 -67
-31 -88 -9 -21 -25 -79 -36 -130 -10 -51 -29 -137 -40 -192 -20 -91 -21 -123
-17 -365 4 -246 6 -272 30 -360 14 -52 28 -115 32 -140 12 -70 72 -247 117
-340 147 -304 297 -490 553 -686 49 -37 227 -135 350 -192 123 -57 295 -98
493 -116 202 -20 257 -20 478 -1 252 23 433 69 609 157 204 103 242 126 360
220 177 142 319 321 438 553 47 91 86 186 103 255 8 30 26 93 39 140 76 262
75 756 -1 1040 -41 149 -107 345 -125 366 -6 7 -31 52 -55 100 -25 48 -59 108
-77 133 -99 146 -303 353 -430 437 -158 104 -174 114 -187 114 -7 0 -40 13
-74 29 -96 46 -186 80 -246 92 -30 6 -86 19 -125 30 -38 10 -114 23 -167 29
-113 12 -405 11 -528 -1z"/>
</g>
</svg>
